<svg width="424" height="576" viewBox="0 0 424 576" fill="none" xmlns="http://www.w3.org/2000/svg">
<g filter="url(#filter0_d)">
<rect x="5.17432" y="1" width="413" height="566" rx="29" fill="#595959" stroke="#343434" stroke-width="2"/>
<g clip-path="url(#clip0)">
<mask id="path-2-inside-1" fill="white">
<path d="M216.964 323.607C215.954 310.372 218.054 284.385 214.815 286.052C214.815 286.052 214.286 288.369 214.195 289.092C213.582 294.017 214.153 315.274 213.448 323.056C213.448 323.056 210.943 343.421 209.548 349.132C208.152 354.843 205.641 389.678 202.85 398.245C200.06 406.811 196.991 418.231 199.781 427.084C202.571 435.936 205.641 450.783 202.85 464.204C200.06 477.624 196.991 496.326 198.665 505.749C199.897 512.683 200.339 519.312 201.456 520.74C202.571 522.167 201.456 525.022 201.456 528.735C201.456 532.446 202.014 540.442 200.758 543.441C200.758 545.581 202.571 551.435 201.596 554.147C200.619 556.861 201.596 558.431 200.339 559.572C199.084 560.715 196.991 563.714 192.387 562.572C189.596 561.714 189.457 559.572 189.876 559.144C190.294 558.716 188.34 559.002 188.34 559.002C187.368 560.825 183.876 561.419 182.201 558.859C181.923 558.431 180.947 560.429 178.714 560.001C176.481 559.572 177.458 558.574 177.458 558.574C177.458 558.574 174.528 558.716 173.831 557.003C173.691 557.431 172.296 558.002 171.179 556.861C170.063 555.719 170.203 552.007 170.622 550.15C171.04 548.293 172.999 545.083 173.691 543.868C174.668 542.155 178.295 535.587 178.156 533.732C178.069 532.584 178.434 523.88 179.272 521.74C180.109 519.597 180.249 517.028 180.249 514.173C180.249 511.317 180.947 495.184 175.365 475.339C169.784 455.494 167.134 445.787 166.995 432.08C166.855 418.374 172.993 410.094 169.366 389.393C165.739 368.691 164.204 354.985 163.785 353.7C163.366 352.416 161.1 323.056 161.1 323.056C160.78 291.083 161.842 296.456 162.272 284.851C163.095 262.595 162.64 266.546 165.788 253.671C166.34 249.393 166.646 245.564 167.198 241.284C167.428 239.5 167.901 237.266 168.132 235.482C171.349 224.344 171.33 226.578 169.948 216.392C169.035 209.647 170.178 210.519 170.862 203.562C170.982 202.328 172.189 180.503 169.89 168.724C168.327 164.127 166.765 159.529 165.202 154.932H165.007C165.077 166.245 161.142 174.474 159.147 184.114C158.494 188.689 158.31 192.519 157.644 197.09C157.439 198.503 157.044 199.503 156.834 200.959C155.925 207.244 157.82 209.745 155.631 221.092C153.098 234.223 147.611 245.69 145.084 258.868C144.665 261.049 144.891 263.395 144.973 265.523C145.178 266.941 145.538 267.75 145.839 269.236C146.257 271.298 146.462 273.869 146.841 275.857C147.307 278.3 147.344 281.244 147.423 284.103C147.495 286.688 147.786 288.516 147.524 291.799C147.447 292.756 147.512 304.582 146.427 308.931C145.926 310.936 144.786 310.786 144.301 310.436C142.302 307.743 144.086 301.598 142.104 295.095C141.909 295.229 141.909 295.111 141.713 295.245C141.743 296.669 141.48 298.508 141.651 300.692C141.923 304.203 141.783 305.669 141.675 307.038C141.384 310.758 141.205 313.977 140.302 315.912C139.814 316.958 138.483 317.879 137.27 316.432C136.592 315.27 136.497 313.556 136.426 311.133C136.119 300.558 136.087 303.992 135.96 301.643C135.824 299.116 135.746 297.151 135.746 297.151C135.435 297.068 135.224 297.026 134.926 297.143C134.168 304.074 134.864 302.674 133.89 311.023C133.719 312.496 133.842 315.255 133.462 317.032C132.682 320.679 129.379 320.217 129.109 317.394C129.016 316.43 128.799 315.393 128.676 314.548C128.543 313.636 128.618 312.346 128.587 311.385C128.538 309.904 128.389 308.61 128.276 307.139C128.146 305.436 129.005 300.842 128.284 297.444C128.275 297.444 127.885 297.444 127.894 297.444C127.637 298.978 127.108 301.299 126.505 304.286C126.413 304.747 126.366 305.564 126.267 306.037C125.725 308.639 125.78 310.11 125.509 311.719C125.085 314.261 125.528 314.646 124.633 316.337C123.657 318.184 122.137 317.342 121.731 316.365C121.101 314.848 120.746 312.374 120.753 309.336C120.766 303.708 121.703 302.526 121.741 295.044C121.749 293.494 121.835 292.131 121.643 290.698V291.448C120.791 292.893 120.463 294.308 118.908 295.044C118.134 295.322 117.509 295.483 116.927 295.173C116.359 294.873 115.976 294.989 116.186 293.858C116.347 292.989 116.742 291.796 116.891 290.724C117.114 289.112 117.085 287.664 117.465 285.972C117.686 284.99 118.293 283.789 118.585 282.845C119.063 281.303 119.27 279.169 119.689 278.456C120.005 277.917 120.74 277.058 121.197 276.451C121.318 276.291 124.326 271.813 125.495 270.268C126.669 268.716 127.489 267.403 127.489 267.403C127.506 263.27 128.559 260.796 128.216 256.82C127.624 249.939 128.043 257.44 127.398 214.162C129.07 190.143 131.262 196.702 133.393 174.922C134.812 160.477 135.071 155.12 135.969 152.121C136.827 149.255 138.187 141.885 137.948 136.753C137.787 133.304 137.79 131.749 137.408 129.548C136.691 125.412 136.907 114.509 141.51 105.163C145.525 97.0087 151.066 93.1828 158.871 89.9311C164.305 87.6671 163.92 88.9494 173.906 83.5224C179.879 80.2757 194.131 71.8198 196.862 65.625C196.906 59.8828 196.734 60.5429 196.866 55.1469C196.866 55.1469 195.742 50.4677 195.281 47.1978C192.883 47.1717 191.514 44.9285 190.689 42.1596C189.956 39.7035 190.032 35.3818 190.018 34.8062C189.961 32.5658 189.863 30.4253 191.765 29.609C192.271 29.489 192.36 29.4767 192.588 29.5358C192.88 29.6107 193.035 29.9338 193.327 30.0087C192.958 18.3138 194.81 9.16158 202.313 4.02492C215.658 -5.11044 231.767 2.48195 236.105 15.0189C237.557 19.2153 237.578 24.992 237.081 30.0091H237.276C237.7 29.6501 237.782 29.4362 238.632 29.5738C240.138 30.2385 240.588 32.0084 240.631 35.1911C240.692 39.922 240.421 43.0843 237.354 46.4169C236.588 47.2495 235.856 47.1524 234.738 47.5985C234.666 49.233 233.792 54.149 233.792 54.149C233.792 54.149 233.197 64.0606 233.565 65.3872C235.091 70.8634 253.066 82.2275 263.577 86.8796C269.786 89.6292 280.524 91.0205 287.726 102.564C292.576 110.333 294.426 121.388 293.22 128.77C292.741 131.692 292.207 138.957 293.061 143.881C296.88 162.894 294.887 149.611 297.406 175.181C298.701 188.304 299.024 186.612 301.628 198.779C301.934 200.214 301.905 201.184 302.099 203.024C302.68 208.607 304.065 213.73 302.97 239.946C301.991 263.303 301.585 258.768 302.64 263.998C303.063 266.107 301.569 266.965 307.558 274.835C308.083 275.523 308.638 276.549 309.161 277.12C309.753 277.769 310.304 277.967 310.72 278.855C311.179 279.841 310.973 280.677 311.202 281.766C311.485 283.082 311.779 284.133 312.639 286.111C312.993 286.93 312.612 289.201 312.867 290.848C313.01 291.776 313.553 292.663 313.702 293.571C313.703 293.578 314.031 294.028 313.969 294.444C313.879 295.038 313.268 295.634 312.087 295.378C309.832 295.012 309.602 293.185 308.374 291.847C308.402 293.726 308.166 294.409 308.759 302.307C308.908 304.299 310.121 312.982 308.339 316.545C307.725 317.774 306.338 317.599 305.61 316.724C303.663 314.387 305.479 312.964 302.488 298.652C302.097 296.797 301.666 298.437 301.666 298.437C301.61 307.397 302.249 303.035 301.578 309.639C301.249 312.851 301.447 319.239 299.674 319.717C298.044 320.158 297.097 318.901 296.812 317.811C296.069 314.958 296.127 311.455 296.107 311.103C296.053 310.143 295.748 307.895 295.71 306.911C295.582 303.669 295.884 302.401 295.255 297.44C295.204 297.027 294.743 296.965 294.743 296.965C294.057 297.605 294.445 299.94 294.328 301.029C293.226 311.206 294.483 312.312 292.806 316.171C292.237 317.48 290.539 317.537 289.856 316.344C289.351 315.46 289.322 314.329 289.259 314.109C288.645 311.966 288.793 309.603 288.608 307.575C288.484 306.234 288.284 305.856 288.308 304.774C288.39 301.102 289.116 298.805 288.452 295.045C288.322 294.979 288.191 294.912 288.061 294.846C287.801 295.253 287.901 295.617 287.77 296.154C287.346 297.888 287.279 300.431 286.999 302.438C286.559 305.611 287.318 309.602 285.326 310.437C284.349 310.37 284.415 310.303 283.831 309.703C281.95 304.933 283.199 298.764 282.74 292.982C282.185 286.025 282.718 286.408 282.863 284.12C283.533 273.186 283.2 278.351 283.984 272.796C284.775 267.186 285.052 267.918 285.43 265.327C286.15 260.382 285.197 257.99 283.681 252.059C283.509 251.384 283.274 250.829 283.113 250.13C282.383 246.975 281.065 243.444 280.233 240.417C273.475 215.846 275.165 221.388 274.232 214.854C273.782 211.707 273.836 212.921 274.193 202.303C273.91 200.334 273.366 198.63 273.081 196.661C272.453 192.301 272.086 187.675 271.458 183.316C269.479 174.09 265.877 166.147 265.794 155.133C265.665 155.199 265.534 155.266 265.403 155.333C264.421 159.243 262.555 163.713 260.931 167.71C260.09 169.784 260.785 169.936 260.049 173.121C259.04 177.493 258.599 195.579 259.74 204.103C260.064 206.549 260.158 204.739 260.717 211.298C260.816 212.478 260.659 213.339 260.56 214.689C260.478 215.793 260.482 217.401 260.337 218.304C259.823 221.501 259.204 223.769 259.934 227.088C260.641 230.294 260.871 228.586 262.996 239.384C263.344 241.147 263.258 242.064 263.509 244.086C263.706 245.686 264.236 248.4 264.501 249.81C264.761 251.188 264.873 252.96 265.126 254.319C265.675 257.256 267.954 264.836 268.086 276.157C268.332 297.104 269.652 295.688 269.493 312.134C269.279 332.163 266.491 364.049 264.517 373.403C261.866 385.967 260.052 402.243 261.03 405.383C262.005 408.524 265.355 433.223 263.4 444.645C261.447 456.065 251.402 493.899 251.542 501.609C251.681 509.319 249.471 516.194 251.681 521.168C253.077 524.309 252.1 530.735 252.658 532.589C253.216 534.445 253.914 539.728 255.867 541.299C257.82 542.87 261.168 550.864 260.471 553.434C259.773 556.004 258.657 558.003 256.843 557.289C255.309 559.003 253.355 558.574 252.937 558.431C252.518 558.288 251.402 561.572 248.054 559.003C247.217 560.287 246.101 561.286 243.728 560.287C241.357 559.288 242.055 559.003 242.055 559.003L240.241 559.288C240.241 559.288 240.519 563 237.171 563C233.823 563 228.94 560.715 229.219 557.004C229.497 553.291 228.94 548.294 230.614 543.155C228.94 539.586 228.8 533.875 229.638 531.161C230.474 528.451 229.638 524.88 229.497 523.025C229.358 521.168 232.149 509.89 232.149 506.749C232.149 503.607 232.428 474.911 230.474 470.628C228.521 466.346 226.01 449.498 228.94 437.793C228.94 437.793 232.476 420.803 232.567 416.52C232.706 409.952 225.451 389.822 225.451 381.828C225.451 373.832 220.708 343.422 220.15 341.137C219.593 338.853 216.964 323.607 216.964 323.607Z"/>
</mask>
<path d="M216.964 323.607C215.954 310.372 218.054 284.385 214.815 286.052C214.815 286.052 214.286 288.369 214.195 289.092C213.582 294.017 214.153 315.274 213.448 323.056C213.448 323.056 210.943 343.421 209.548 349.132C208.152 354.843 205.641 389.678 202.85 398.245C200.06 406.811 196.991 418.231 199.781 427.084C202.571 435.936 205.641 450.783 202.85 464.204C200.06 477.624 196.991 496.326 198.665 505.749C199.897 512.683 200.339 519.312 201.456 520.74C202.571 522.167 201.456 525.022 201.456 528.735C201.456 532.446 202.014 540.442 200.758 543.441C200.758 545.581 202.571 551.435 201.596 554.147C200.619 556.861 201.596 558.431 200.339 559.572C199.084 560.715 196.991 563.714 192.387 562.572C189.596 561.714 189.457 559.572 189.876 559.144C190.294 558.716 188.34 559.002 188.34 559.002C187.368 560.825 183.876 561.419 182.201 558.859C181.923 558.431 180.947 560.429 178.714 560.001C176.481 559.572 177.458 558.574 177.458 558.574C177.458 558.574 174.528 558.716 173.831 557.003C173.691 557.431 172.296 558.002 171.179 556.861C170.063 555.719 170.203 552.007 170.622 550.15C171.04 548.293 172.999 545.083 173.691 543.868C174.668 542.155 178.295 535.587 178.156 533.732C178.069 532.584 178.434 523.88 179.272 521.74C180.109 519.597 180.249 517.028 180.249 514.173C180.249 511.317 180.947 495.184 175.365 475.339C169.784 455.494 167.134 445.787 166.995 432.08C166.855 418.374 172.993 410.094 169.366 389.393C165.739 368.691 164.204 354.985 163.785 353.7C163.366 352.416 161.1 323.056 161.1 323.056C160.78 291.083 161.842 296.456 162.272 284.851C163.095 262.595 162.64 266.546 165.788 253.671C166.34 249.393 166.646 245.564 167.198 241.284C167.428 239.5 167.901 237.266 168.132 235.482C171.349 224.344 171.33 226.578 169.948 216.392C169.035 209.647 170.178 210.519 170.862 203.562C170.982 202.328 172.189 180.503 169.89 168.724C168.327 164.127 166.765 159.529 165.202 154.932H165.007C165.077 166.245 161.142 174.474 159.147 184.114C158.494 188.689 158.31 192.519 157.644 197.09C157.439 198.503 157.044 199.503 156.834 200.959C155.925 207.244 157.82 209.745 155.631 221.092C153.098 234.223 147.611 245.69 145.084 258.868C144.665 261.049 144.891 263.395 144.973 265.523C145.178 266.941 145.538 267.75 145.839 269.236C146.257 271.298 146.462 273.869 146.841 275.857C147.307 278.3 147.344 281.244 147.423 284.103C147.495 286.688 147.786 288.516 147.524 291.799C147.447 292.756 147.512 304.582 146.427 308.931C145.926 310.936 144.786 310.786 144.301 310.436C142.302 307.743 144.086 301.598 142.104 295.095C141.909 295.229 141.909 295.111 141.713 295.245C141.743 296.669 141.48 298.508 141.651 300.692C141.923 304.203 141.783 305.669 141.675 307.038C141.384 310.758 141.205 313.977 140.302 315.912C139.814 316.958 138.483 317.879 137.27 316.432C136.592 315.27 136.497 313.556 136.426 311.133C136.119 300.558 136.087 303.992 135.96 301.643C135.824 299.116 135.746 297.151 135.746 297.151C135.435 297.068 135.224 297.026 134.926 297.143C134.168 304.074 134.864 302.674 133.89 311.023C133.719 312.496 133.842 315.255 133.462 317.032C132.682 320.679 129.379 320.217 129.109 317.394C129.016 316.43 128.799 315.393 128.676 314.548C128.543 313.636 128.618 312.346 128.587 311.385C128.538 309.904 128.389 308.61 128.276 307.139C128.146 305.436 129.005 300.842 128.284 297.444C128.275 297.444 127.885 297.444 127.894 297.444C127.637 298.978 127.108 301.299 126.505 304.286C126.413 304.747 126.366 305.564 126.267 306.037C125.725 308.639 125.78 310.11 125.509 311.719C125.085 314.261 125.528 314.646 124.633 316.337C123.657 318.184 122.137 317.342 121.731 316.365C121.101 314.848 120.746 312.374 120.753 309.336C120.766 303.708 121.703 302.526 121.741 295.044C121.749 293.494 121.835 292.131 121.643 290.698V291.448C120.791 292.893 120.463 294.308 118.908 295.044C118.134 295.322 117.509 295.483 116.927 295.173C116.359 294.873 115.976 294.989 116.186 293.858C116.347 292.989 116.742 291.796 116.891 290.724C117.114 289.112 117.085 287.664 117.465 285.972C117.686 284.99 118.293 283.789 118.585 282.845C119.063 281.303 119.27 279.169 119.689 278.456C120.005 277.917 120.74 277.058 121.197 276.451C121.318 276.291 124.326 271.813 125.495 270.268C126.669 268.716 127.489 267.403 127.489 267.403C127.506 263.27 128.559 260.796 128.216 256.82C127.624 249.939 128.043 257.44 127.398 214.162C129.07 190.143 131.262 196.702 133.393 174.922C134.812 160.477 135.071 155.12 135.969 152.121C136.827 149.255 138.187 141.885 137.948 136.753C137.787 133.304 137.79 131.749 137.408 129.548C136.691 125.412 136.907 114.509 141.51 105.163C145.525 97.0087 151.066 93.1828 158.871 89.9311C164.305 87.6671 163.92 88.9494 173.906 83.5224C179.879 80.2757 194.131 71.8198 196.862 65.625C196.906 59.8828 196.734 60.5429 196.866 55.1469C196.866 55.1469 195.742 50.4677 195.281 47.1978C192.883 47.1717 191.514 44.9285 190.689 42.1596C189.956 39.7035 190.032 35.3818 190.018 34.8062C189.961 32.5658 189.863 30.4253 191.765 29.609C192.271 29.489 192.36 29.4767 192.588 29.5358C192.88 29.6107 193.035 29.9338 193.327 30.0087C192.958 18.3138 194.81 9.16158 202.313 4.02492C215.658 -5.11044 231.767 2.48195 236.105 15.0189C237.557 19.2153 237.578 24.992 237.081 30.0091H237.276C237.7 29.6501 237.782 29.4362 238.632 29.5738C240.138 30.2385 240.588 32.0084 240.631 35.1911C240.692 39.922 240.421 43.0843 237.354 46.4169C236.588 47.2495 235.856 47.1524 234.738 47.5985C234.666 49.233 233.792 54.149 233.792 54.149C233.792 54.149 233.197 64.0606 233.565 65.3872C235.091 70.8634 253.066 82.2275 263.577 86.8796C269.786 89.6292 280.524 91.0205 287.726 102.564C292.576 110.333 294.426 121.388 293.22 128.77C292.741 131.692 292.207 138.957 293.061 143.881C296.88 162.894 294.887 149.611 297.406 175.181C298.701 188.304 299.024 186.612 301.628 198.779C301.934 200.214 301.905 201.184 302.099 203.024C302.68 208.607 304.065 213.73 302.97 239.946C301.991 263.303 301.585 258.768 302.64 263.998C303.063 266.107 301.569 266.965 307.558 274.835C308.083 275.523 308.638 276.549 309.161 277.12C309.753 277.769 310.304 277.967 310.72 278.855C311.179 279.841 310.973 280.677 311.202 281.766C311.485 283.082 311.779 284.133 312.639 286.111C312.993 286.93 312.612 289.201 312.867 290.848C313.01 291.776 313.553 292.663 313.702 293.571C313.703 293.578 314.031 294.028 313.969 294.444C313.879 295.038 313.268 295.634 312.087 295.378C309.832 295.012 309.602 293.185 308.374 291.847C308.402 293.726 308.166 294.409 308.759 302.307C308.908 304.299 310.121 312.982 308.339 316.545C307.725 317.774 306.338 317.599 305.61 316.724C303.663 314.387 305.479 312.964 302.488 298.652C302.097 296.797 301.666 298.437 301.666 298.437C301.61 307.397 302.249 303.035 301.578 309.639C301.249 312.851 301.447 319.239 299.674 319.717C298.044 320.158 297.097 318.901 296.812 317.811C296.069 314.958 296.127 311.455 296.107 311.103C296.053 310.143 295.748 307.895 295.71 306.911C295.582 303.669 295.884 302.401 295.255 297.44C295.204 297.027 294.743 296.965 294.743 296.965C294.057 297.605 294.445 299.94 294.328 301.029C293.226 311.206 294.483 312.312 292.806 316.171C292.237 317.48 290.539 317.537 289.856 316.344C289.351 315.46 289.322 314.329 289.259 314.109C288.645 311.966 288.793 309.603 288.608 307.575C288.484 306.234 288.284 305.856 288.308 304.774C288.39 301.102 289.116 298.805 288.452 295.045C288.322 294.979 288.191 294.912 288.061 294.846C287.801 295.253 287.901 295.617 287.77 296.154C287.346 297.888 287.279 300.431 286.999 302.438C286.559 305.611 287.318 309.602 285.326 310.437C284.349 310.37 284.415 310.303 283.831 309.703C281.95 304.933 283.199 298.764 282.74 292.982C282.185 286.025 282.718 286.408 282.863 284.12C283.533 273.186 283.2 278.351 283.984 272.796C284.775 267.186 285.052 267.918 285.43 265.327C286.15 260.382 285.197 257.99 283.681 252.059C283.509 251.384 283.274 250.829 283.113 250.13C282.383 246.975 281.065 243.444 280.233 240.417C273.475 215.846 275.165 221.388 274.232 214.854C273.782 211.707 273.836 212.921 274.193 202.303C273.91 200.334 273.366 198.63 273.081 196.661C272.453 192.301 272.086 187.675 271.458 183.316C269.479 174.09 265.877 166.147 265.794 155.133C265.665 155.199 265.534 155.266 265.403 155.333C264.421 159.243 262.555 163.713 260.931 167.71C260.09 169.784 260.785 169.936 260.049 173.121C259.04 177.493 258.599 195.579 259.74 204.103C260.064 206.549 260.158 204.739 260.717 211.298C260.816 212.478 260.659 213.339 260.56 214.689C260.478 215.793 260.482 217.401 260.337 218.304C259.823 221.501 259.204 223.769 259.934 227.088C260.641 230.294 260.871 228.586 262.996 239.384C263.344 241.147 263.258 242.064 263.509 244.086C263.706 245.686 264.236 248.4 264.501 249.81C264.761 251.188 264.873 252.96 265.126 254.319C265.675 257.256 267.954 264.836 268.086 276.157C268.332 297.104 269.652 295.688 269.493 312.134C269.279 332.163 266.491 364.049 264.517 373.403C261.866 385.967 260.052 402.243 261.03 405.383C262.005 408.524 265.355 433.223 263.4 444.645C261.447 456.065 251.402 493.899 251.542 501.609C251.681 509.319 249.471 516.194 251.681 521.168C253.077 524.309 252.1 530.735 252.658 532.589C253.216 534.445 253.914 539.728 255.867 541.299C257.82 542.87 261.168 550.864 260.471 553.434C259.773 556.004 258.657 558.003 256.843 557.289C255.309 559.003 253.355 558.574 252.937 558.431C252.518 558.288 251.402 561.572 248.054 559.003C247.217 560.287 246.101 561.286 243.728 560.287C241.357 559.288 242.055 559.003 242.055 559.003L240.241 559.288C240.241 559.288 240.519 563 237.171 563C233.823 563 228.94 560.715 229.219 557.004C229.497 553.291 228.94 548.294 230.614 543.155C228.94 539.586 228.8 533.875 229.638 531.161C230.474 528.451 229.638 524.88 229.497 523.025C229.358 521.168 232.149 509.89 232.149 506.749C232.149 503.607 232.428 474.911 230.474 470.628C228.521 466.346 226.01 449.498 228.94 437.793C228.94 437.793 232.476 420.803 232.567 416.52C232.706 409.952 225.451 389.822 225.451 381.828C225.451 373.832 220.708 343.422 220.15 341.137C219.593 338.853 216.964 323.607 216.964 323.607Z" fill="black" stroke="black" stroke-width="2" mask="url(#path-2-inside-1)"/>
<path d="M135.43 169H164.384" stroke="#FAE303" stroke-width="2"/>
<path d="M276.337 225.5H303.843" stroke="#FAE303" stroke-width="2"/>
<path d="M227.116 448H263.791" stroke="#FAE303" stroke-width="2"/>
<path d="M163.901 272H216.017H268.134M169.692 237H261.86M217.465 331.5H268.134" stroke="#FAE303" stroke-width="2"/>
<line x1="196.232" y1="64" x2="236.767" y2="64" stroke="#FAE303" stroke-width="2"/>
<path d="M157.628 142H273.442" stroke="#FAE303" stroke-width="2"/>
<path d="M268.616 173.5H297.57" stroke="#FAE303" stroke-width="2"/>
<line y1="-0.5" x2="86.0764" y2="-0.5" transform="matrix(-0.986684 0.162646 -0.151763 -0.988417 321.698 50)" stroke="#FAE303"/>
<line y1="-0.5" x2="86.0764" y2="-0.5" transform="matrix(-0.986684 0.162646 -0.151763 -0.988417 321.698 50)" stroke="#FAE303"/>
<line y1="-0.5" x2="64.6345" y2="-0.5" transform="matrix(-0.746595 -0.665279 0.638669 -0.769481 158.593 142)" stroke="#FAE303"/>
<line y1="-0.5" x2="64.6345" y2="-0.5" transform="matrix(-0.746595 -0.665279 0.638669 -0.769481 158.593 142)" stroke="#FAE303"/>
<line y1="-0.5" x2="41.2677" y2="-0.5" transform="matrix(-0.631441 0.775424 -0.752858 -0.658184 135.43 168)" stroke="#FAE303"/>
<line y1="-0.5" x2="41.2677" y2="-0.5" transform="matrix(-0.631441 0.775424 -0.752858 -0.658184 135.43 168)" stroke="#FAE303"/>
<line y1="-0.5" x2="89.7381" y2="-0.5" transform="matrix(-0.677553 0.735474 -0.71099 -0.703202 170.174 236)" stroke="#FAE303"/>
<line y1="-0.5" x2="89.7381" y2="-0.5" transform="matrix(-0.677553 0.735474 -0.71099 -0.703202 170.174 236)" stroke="#FAE303"/>
<line y1="-0.5" x2="96.2667" y2="-0.5" transform="matrix(-0.57145 -0.820637 0.800923 -0.598768 322.663 350)" stroke="#FAE303"/>
<line y1="-0.5" x2="96.2667" y2="-0.5" transform="matrix(-0.57145 -0.820637 0.800923 -0.598768 322.663 350)" stroke="#FAE303"/>
<path d="M261.86 448.5L324.601 449.5" stroke="#FAE303"/>
<path d="M261.86 448.5L324.601 449.5" stroke="#FAE303"/>
<line y1="-0.5" x2="34.0391" y2="-0.5" transform="matrix(-0.737183 0.675694 -0.649306 -0.760527 321.698 150)" stroke="#FAE303"/>
<line y1="-0.5" x2="34.0391" y2="-0.5" transform="matrix(-0.737183 0.675694 -0.649306 -0.760527 321.698 150)" stroke="#FAE303"/>
<line y1="-0.5" x2="32.3818" y2="-0.5" transform="matrix(-0.596086 -0.802921 0.781999 -0.62328 322.663 251)" stroke="#FAE303"/>
<line y1="-0.5" x2="32.3818" y2="-0.5" transform="matrix(-0.596086 -0.802921 0.781999 -0.62328 322.663 251)" stroke="#FAE303"/>
<line y1="-0.5" x2="130.404" y2="-0.5" transform="matrix(0.843713 -0.536795 0.509817 0.860283 109.372 402)" stroke="#FAE303"/>
<line y1="-0.5" x2="130.404" y2="-0.5" transform="matrix(0.843713 -0.536795 0.509817 0.860283 109.372 402)" stroke="#FAE303"/>
</g>
<g filter="url(#filter1_d)">
<g filter="url(#filter2_d)">
<rect x="321.698" y="40" width="86.8605" height="20" rx="10" fill="#FAE303"/>
</g>
<path d="M355.943 55L352.933 51.612V55H351.659V44.64H352.933V50.73L355.887 47.328H357.665L354.053 51.15L357.679 55H355.943ZM358.388 51.136C358.388 50.352 358.547 49.666 358.864 49.078C359.182 48.4807 359.616 48.0187 360.166 47.692C360.726 47.3653 361.347 47.202 362.028 47.202C362.7 47.202 363.284 47.3467 363.778 47.636C364.273 47.9253 364.642 48.2893 364.884 48.728V47.328H366.172V55H364.884V53.572C364.632 54.02 364.254 54.3933 363.75 54.692C363.256 54.9813 362.677 55.126 362.014 55.126C361.333 55.126 360.717 54.958 360.166 54.622C359.616 54.286 359.182 53.8147 358.864 53.208C358.547 52.6013 358.388 51.9107 358.388 51.136ZM364.884 51.15C364.884 50.5713 364.768 50.0673 364.534 49.638C364.301 49.2087 363.984 48.882 363.582 48.658C363.19 48.4247 362.756 48.308 362.28 48.308C361.804 48.308 361.37 48.42 360.978 48.644C360.586 48.868 360.274 49.1947 360.04 49.624C359.807 50.0533 359.69 50.5573 359.69 51.136C359.69 51.724 359.807 52.2373 360.04 52.676C360.274 53.1053 360.586 53.4367 360.978 53.67C361.37 53.894 361.804 54.006 362.28 54.006C362.756 54.006 363.19 53.894 363.582 53.67C363.984 53.4367 364.301 53.1053 364.534 52.676C364.768 52.2373 364.884 51.7287 364.884 51.15ZM369.599 48.574C369.823 48.1353 370.14 47.7947 370.551 47.552C370.971 47.3093 371.48 47.188 372.077 47.188V48.504H371.741C370.313 48.504 369.599 49.2787 369.599 50.828V55H368.325V47.328H369.599V48.574ZM377.832 55L374.822 51.612V55H373.548V44.64H374.822V50.73L377.776 47.328H379.554L375.942 51.15L379.568 55H377.832Z" fill="#363636"/>
</g>
<g filter="url(#filter3_d)">
<g filter="url(#filter4_d)">
<rect x="23.4768" y="90" width="86.8605" height="20" rx="10" fill="#FAE303"/>
</g>
<path d="M51.3306 105L48.3206 101.612V105H47.0466V94.64H48.3206V100.73L51.2746 97.328H53.0526L49.4406 101.15L53.0666 105H51.3306ZM55.5256 94.64V105H54.2516V94.64H55.5256ZM57.221 101.136C57.221 100.352 57.3796 99.666 57.697 99.078C58.0143 98.4807 58.4483 98.0187 58.999 97.692C59.559 97.3653 60.1796 97.202 60.861 97.202C61.533 97.202 62.1163 97.3467 62.611 97.636C63.1056 97.9253 63.4743 98.2893 63.717 98.728V97.328H65.005V105H63.717V103.572C63.465 104.02 63.087 104.393 62.583 104.692C62.0883 104.981 61.5096 105.126 60.847 105.126C60.1656 105.126 59.5496 104.958 58.999 104.622C58.4483 104.286 58.0143 103.815 57.697 103.208C57.3796 102.601 57.221 101.911 57.221 101.136ZM63.717 101.15C63.717 100.571 63.6003 100.067 63.367 99.638C63.1336 99.2087 62.8163 98.882 62.415 98.658C62.023 98.4247 61.589 98.308 61.113 98.308C60.637 98.308 60.203 98.42 59.811 98.644C59.419 98.868 59.1063 99.1947 58.873 99.624C58.6396 100.053 58.523 100.557 58.523 101.136C58.523 101.724 58.6396 102.237 58.873 102.676C59.1063 103.105 59.419 103.437 59.811 103.67C60.203 103.894 60.637 104.006 61.113 104.006C61.589 104.006 62.023 103.894 62.415 103.67C62.8163 103.437 63.1336 103.105 63.367 102.676C63.6003 102.237 63.717 101.729 63.717 101.15ZM68.7119 98.378V102.9C68.7119 103.273 68.7912 103.539 68.9499 103.698C69.1086 103.847 69.3839 103.922 69.7759 103.922H70.7139V105H69.5659C68.8566 105 68.3246 104.837 67.9699 104.51C67.6152 104.183 67.4379 103.647 67.4379 102.9V98.378H66.4439V97.328H67.4379V95.396H68.7119V97.328H70.7139V98.378H68.7119ZM76.5415 105L73.5315 101.612V105H72.2575V94.64H73.5315V100.73L76.4855 97.328H78.2635L74.6515 101.15L78.2775 105H76.5415ZM78.9866 101.136C78.9866 100.352 79.1452 99.666 79.4626 99.078C79.7799 98.4807 80.2139 98.0187 80.7646 97.692C81.3246 97.3653 81.9452 97.202 82.6266 97.202C83.2986 97.202 83.8819 97.3467 84.3766 97.636C84.8712 97.9253 85.2399 98.2893 85.4826 98.728V97.328H86.7706V105H85.4826V103.572C85.2306 104.02 84.8526 104.393 84.3486 104.692C83.8539 104.981 83.2752 105.126 82.6126 105.126C81.9312 105.126 81.3152 104.958 80.7646 104.622C80.2139 104.286 79.7799 103.815 79.4626 103.208C79.1452 102.601 78.9866 101.911 78.9866 101.136ZM85.4826 101.15C85.4826 100.571 85.3659 100.067 85.1326 99.638C84.8992 99.2087 84.5819 98.882 84.1806 98.658C83.7886 98.4247 83.3546 98.308 82.8786 98.308C82.4026 98.308 81.9686 98.42 81.5766 98.644C81.1846 98.868 80.8719 99.1947 80.6386 99.624C80.4052 100.053 80.2886 100.557 80.2886 101.136C80.2886 101.724 80.4052 102.237 80.6386 102.676C80.8719 103.105 81.1846 103.437 81.5766 103.67C81.9686 103.894 82.4026 104.006 82.8786 104.006C83.3546 104.006 83.7886 103.894 84.1806 103.67C84.5819 103.437 84.8992 103.105 85.1326 102.676C85.3659 102.237 85.4826 101.729 85.4826 101.15Z" fill="#363636"/>
</g>
<g filter="url(#filter5_d)">
<g filter="url(#filter6_d)">
<rect x="321.698" y="140" width="86.8605" height="20" rx="10" fill="#FAE303"/>
</g>
<path d="M344.046 148.756C344.308 148.299 344.69 147.925 345.194 147.636C345.698 147.347 346.272 147.202 346.916 147.202C347.607 147.202 348.228 147.365 348.778 147.692C349.329 148.019 349.763 148.481 350.08 149.078C350.398 149.666 350.556 150.352 350.556 151.136C350.556 151.911 350.398 152.601 350.08 153.208C349.763 153.815 349.324 154.286 348.764 154.622C348.214 154.958 347.598 155.126 346.916 155.126C346.254 155.126 345.67 154.981 345.166 154.692C344.672 154.403 344.298 154.034 344.046 153.586V155H342.772V144.64H344.046V148.756ZM349.254 151.136C349.254 150.557 349.138 150.053 348.904 149.624C348.671 149.195 348.354 148.868 347.952 148.644C347.56 148.42 347.126 148.308 346.65 148.308C346.184 148.308 345.75 148.425 345.348 148.658C344.956 148.882 344.639 149.213 344.396 149.652C344.163 150.081 344.046 150.581 344.046 151.15C344.046 151.729 344.163 152.237 344.396 152.676C344.639 153.105 344.956 153.437 345.348 153.67C345.75 153.894 346.184 154.006 346.65 154.006C347.126 154.006 347.56 153.894 347.952 153.67C348.354 153.437 348.671 153.105 348.904 152.676C349.138 152.237 349.254 151.724 349.254 151.136ZM352.891 146.082C352.649 146.082 352.443 145.998 352.275 145.83C352.107 145.662 352.023 145.457 352.023 145.214C352.023 144.971 352.107 144.766 352.275 144.598C352.443 144.43 352.649 144.346 352.891 144.346C353.125 144.346 353.321 144.43 353.479 144.598C353.647 144.766 353.731 144.971 353.731 145.214C353.731 145.457 353.647 145.662 353.479 145.83C353.321 145.998 353.125 146.082 352.891 146.082ZM353.507 147.328V155H352.233V147.328H353.507ZM355.203 151.15C355.203 150.357 355.361 149.666 355.679 149.078C355.996 148.481 356.435 148.019 356.995 147.692C357.564 147.365 358.213 147.202 358.941 147.202C359.883 147.202 360.658 147.431 361.265 147.888C361.881 148.345 362.287 148.98 362.483 149.792H361.111C360.98 149.325 360.723 148.957 360.341 148.686C359.967 148.415 359.501 148.28 358.941 148.28C358.213 148.28 357.625 148.532 357.177 149.036C356.729 149.531 356.505 150.235 356.505 151.15C356.505 152.074 356.729 152.788 357.177 153.292C357.625 153.796 358.213 154.048 358.941 154.048C359.501 154.048 359.967 153.917 360.341 153.656C360.714 153.395 360.971 153.021 361.111 152.536H362.483C362.277 153.32 361.867 153.95 361.251 154.426C360.635 154.893 359.865 155.126 358.941 155.126C358.213 155.126 357.564 154.963 356.995 154.636C356.435 154.309 355.996 153.847 355.679 153.25C355.361 152.653 355.203 151.953 355.203 151.15ZM371.183 150.87C371.183 151.113 371.169 151.369 371.141 151.64H365.009C365.055 152.396 365.312 152.989 365.779 153.418C366.255 153.838 366.829 154.048 367.501 154.048C368.051 154.048 368.509 153.922 368.873 153.67C369.246 153.409 369.507 153.063 369.657 152.634H371.029C370.823 153.371 370.413 153.973 369.797 154.44C369.181 154.897 368.415 155.126 367.501 155.126C366.773 155.126 366.119 154.963 365.541 154.636C364.971 154.309 364.523 153.847 364.197 153.25C363.87 152.643 363.707 151.943 363.707 151.15C363.707 150.357 363.865 149.661 364.183 149.064C364.5 148.467 364.943 148.009 365.513 147.692C366.091 147.365 366.754 147.202 367.501 147.202C368.229 147.202 368.873 147.361 369.433 147.678C369.993 147.995 370.422 148.434 370.721 148.994C371.029 149.545 371.183 150.17 371.183 150.87ZM369.867 150.604C369.867 150.119 369.759 149.703 369.545 149.358C369.33 149.003 369.036 148.737 368.663 148.56C368.299 148.373 367.893 148.28 367.445 148.28C366.801 148.28 366.25 148.485 365.793 148.896C365.345 149.307 365.088 149.876 365.023 150.604H369.867ZM374.138 148.742C374.39 148.303 374.764 147.939 375.258 147.65C375.762 147.351 376.346 147.202 377.008 147.202C377.69 147.202 378.306 147.365 378.856 147.692C379.416 148.019 379.855 148.481 380.172 149.078C380.49 149.666 380.648 150.352 380.648 151.136C380.648 151.911 380.49 152.601 380.172 153.208C379.855 153.815 379.416 154.286 378.856 154.622C378.306 154.958 377.69 155.126 377.008 155.126C376.355 155.126 375.776 154.981 375.272 154.692C374.778 154.393 374.4 154.025 374.138 153.586V158.64H372.864V147.328H374.138V148.742ZM379.346 151.136C379.346 150.557 379.23 150.053 378.996 149.624C378.763 149.195 378.446 148.868 378.044 148.644C377.652 148.42 377.218 148.308 376.742 148.308C376.276 148.308 375.842 148.425 375.44 148.658C375.048 148.882 374.731 149.213 374.488 149.652C374.255 150.081 374.138 150.581 374.138 151.15C374.138 151.729 374.255 152.237 374.488 152.676C374.731 153.105 375.048 153.437 375.44 153.67C375.842 153.894 376.276 154.006 376.742 154.006C377.218 154.006 377.652 153.894 378.044 153.67C378.446 153.437 378.763 153.105 378.996 152.676C379.23 152.237 379.346 151.724 379.346 151.136ZM385.041 155.126C384.453 155.126 383.926 155.028 383.459 154.832C382.992 154.627 382.624 154.347 382.353 153.992C382.082 153.628 381.933 153.213 381.905 152.746H383.221C383.258 153.129 383.436 153.441 383.753 153.684C384.08 153.927 384.504 154.048 385.027 154.048C385.512 154.048 385.895 153.941 386.175 153.726C386.455 153.511 386.595 153.241 386.595 152.914C386.595 152.578 386.446 152.331 386.147 152.172C385.848 152.004 385.386 151.841 384.761 151.682C384.192 151.533 383.725 151.383 383.361 151.234C383.006 151.075 382.698 150.847 382.437 150.548C382.185 150.24 382.059 149.839 382.059 149.344C382.059 148.952 382.176 148.593 382.409 148.266C382.642 147.939 382.974 147.683 383.403 147.496C383.832 147.3 384.322 147.202 384.873 147.202C385.722 147.202 386.408 147.417 386.931 147.846C387.454 148.275 387.734 148.863 387.771 149.61H386.497C386.469 149.209 386.306 148.887 386.007 148.644C385.718 148.401 385.326 148.28 384.831 148.28C384.374 148.28 384.01 148.378 383.739 148.574C383.468 148.77 383.333 149.027 383.333 149.344C383.333 149.596 383.412 149.806 383.571 149.974C383.739 150.133 383.944 150.263 384.187 150.366C384.439 150.459 384.784 150.567 385.223 150.688C385.774 150.837 386.222 150.987 386.567 151.136C386.912 151.276 387.206 151.491 387.449 151.78C387.701 152.069 387.832 152.447 387.841 152.914C387.841 153.334 387.724 153.712 387.491 154.048C387.258 154.384 386.926 154.65 386.497 154.846C386.077 155.033 385.592 155.126 385.041 155.126Z" fill="#363636"/>
</g>
<g filter="url(#filter7_d)">
<g filter="url(#filter8_d)">
<rect x="321.698" y="440" width="86.8605" height="20" rx="10" fill="#FAE303"/>
</g>
<path d="M349.751 449.4L348.757 449.792V455H347.483V450.282L346.489 450.674V449.666L347.483 449.288V444.64H348.757V448.784L349.751 448.406V449.4ZM357.563 447.328L352.943 458.612H351.627L353.139 454.916L350.045 447.328H351.459L353.867 453.544L356.247 447.328H357.563ZM358.368 451.136C358.368 450.352 358.526 449.666 358.844 449.078C359.161 448.481 359.595 448.019 360.146 447.692C360.706 447.365 361.331 447.202 362.022 447.202C362.619 447.202 363.174 447.342 363.688 447.622C364.201 447.893 364.593 448.252 364.864 448.7V444.64H366.152V455H364.864V453.558C364.612 454.015 364.238 454.393 363.744 454.692C363.249 454.981 362.67 455.126 362.008 455.126C361.326 455.126 360.706 454.958 360.146 454.622C359.595 454.286 359.161 453.815 358.844 453.208C358.526 452.601 358.368 451.911 358.368 451.136ZM364.864 451.15C364.864 450.571 364.747 450.067 364.514 449.638C364.28 449.209 363.963 448.882 363.562 448.658C363.17 448.425 362.736 448.308 362.26 448.308C361.784 448.308 361.35 448.42 360.958 448.644C360.566 448.868 360.253 449.195 360.02 449.624C359.786 450.053 359.67 450.557 359.67 451.136C359.67 451.724 359.786 452.237 360.02 452.676C360.253 453.105 360.566 453.437 360.958 453.67C361.35 453.894 361.784 454.006 362.26 454.006C362.736 454.006 363.17 453.894 363.562 453.67C363.963 453.437 364.28 453.105 364.514 452.676C364.747 452.237 364.864 451.729 364.864 451.15ZM372.589 455L369.579 451.612V455H368.305V444.64H369.579V450.73L372.533 447.328H374.311L370.699 451.15L374.325 455H372.589ZM375.034 451.136C375.034 450.352 375.192 449.666 375.51 449.078C375.827 448.481 376.261 448.019 376.812 447.692C377.372 447.365 377.992 447.202 378.674 447.202C379.346 447.202 379.929 447.347 380.424 447.636C380.918 447.925 381.287 448.289 381.53 448.728V447.328H382.818V455H381.53V453.572C381.278 454.02 380.9 454.393 380.396 454.692C379.901 454.981 379.322 455.126 378.66 455.126C377.978 455.126 377.362 454.958 376.812 454.622C376.261 454.286 375.827 453.815 375.51 453.208C375.192 452.601 375.034 451.911 375.034 451.136ZM381.53 451.15C381.53 450.571 381.413 450.067 381.18 449.638C380.946 449.209 380.629 448.882 380.228 448.658C379.836 448.425 379.402 448.308 378.926 448.308C378.45 448.308 378.016 448.42 377.624 448.644C377.232 448.868 376.919 449.195 376.686 449.624C376.452 450.053 376.336 450.557 376.336 451.136C376.336 451.724 376.452 452.237 376.686 452.676C376.919 453.105 377.232 453.437 377.624 453.67C378.016 453.894 378.45 454.006 378.926 454.006C379.402 454.006 379.836 453.894 380.228 453.67C380.629 453.437 380.946 453.105 381.18 452.676C381.413 452.237 381.53 451.729 381.53 451.15Z" fill="#363636"/>
</g>
<g filter="url(#filter9_d)">
<g filter="url(#filter10_d)">
<rect x="23.4768" y="390" width="86.8605" height="20" rx="10" fill="#FAE303"/>
</g>
<path d="M61.1035 397.328V405H59.8295V403.866C59.5868 404.258 59.2462 404.566 58.8075 404.79C58.3782 405.005 57.9022 405.112 57.3795 405.112C56.7822 405.112 56.2455 404.991 55.7695 404.748C55.2935 404.496 54.9155 404.123 54.6355 403.628C54.3648 403.133 54.2295 402.531 54.2295 401.822V397.328H55.4895V401.654C55.4895 402.41 55.6808 402.993 56.0635 403.404C56.4462 403.805 56.9688 404.006 57.6315 404.006C58.3128 404.006 58.8495 403.796 59.2415 403.376C59.6335 402.956 59.8295 402.345 59.8295 401.542V397.328H61.1035ZM62.7786 401.136C62.7786 400.352 62.9372 399.666 63.2546 399.078C63.5719 398.481 64.0059 398.019 64.5566 397.692C65.1166 397.365 65.7419 397.202 66.4326 397.202C67.0299 397.202 67.5852 397.342 68.0986 397.622C68.6119 397.893 69.0039 398.252 69.2746 398.7V394.64H70.5626V405H69.2746V403.558C69.0226 404.015 68.6492 404.393 68.1546 404.692C67.6599 404.981 67.0812 405.126 66.4186 405.126C65.7372 405.126 65.1166 404.958 64.5566 404.622C64.0059 404.286 63.5719 403.815 63.2546 403.208C62.9372 402.601 62.7786 401.911 62.7786 401.136ZM69.2746 401.15C69.2746 400.571 69.1579 400.067 68.9246 399.638C68.6912 399.209 68.3739 398.882 67.9726 398.658C67.5806 398.425 67.1466 398.308 66.6706 398.308C66.1946 398.308 65.7606 398.42 65.3686 398.644C64.9766 398.868 64.6639 399.195 64.4306 399.624C64.1972 400.053 64.0806 400.557 64.0806 401.136C64.0806 401.724 64.1972 402.237 64.4306 402.676C64.6639 403.105 64.9766 403.437 65.3686 403.67C65.7606 403.894 66.1946 404.006 66.6706 404.006C67.1466 404.006 67.5806 403.894 67.9726 403.67C68.3739 403.437 68.6912 403.105 68.9246 402.676C69.1579 402.237 69.2746 401.729 69.2746 401.15ZM76.0615 405.126C75.3428 405.126 74.6895 404.963 74.1015 404.636C73.5228 404.309 73.0655 403.847 72.7295 403.25C72.4028 402.643 72.2395 401.943 72.2395 401.15C72.2395 400.366 72.4075 399.675 72.7435 399.078C73.0888 398.471 73.5555 398.009 74.1435 397.692C74.7315 397.365 75.3895 397.202 76.1175 397.202C76.8455 397.202 77.5035 397.365 78.0915 397.692C78.6795 398.009 79.1415 398.467 79.4775 399.064C79.8228 399.661 79.9955 400.357 79.9955 401.15C79.9955 401.943 79.8182 402.643 79.4635 403.25C79.1182 403.847 78.6468 404.309 78.0495 404.636C77.4522 404.963 76.7895 405.126 76.0615 405.126ZM76.0615 404.006C76.5188 404.006 76.9482 403.899 77.3495 403.684C77.7508 403.469 78.0728 403.147 78.3155 402.718C78.5675 402.289 78.6935 401.766 78.6935 401.15C78.6935 400.534 78.5722 400.011 78.3295 399.582C78.0868 399.153 77.7695 398.835 77.3775 398.63C76.9855 398.415 76.5608 398.308 76.1035 398.308C75.6368 398.308 75.2075 398.415 74.8155 398.63C74.4328 398.835 74.1248 399.153 73.8915 399.582C73.6582 400.011 73.5415 400.534 73.5415 401.15C73.5415 401.775 73.6535 402.303 73.8775 402.732C74.1108 403.161 74.4188 403.483 74.8015 403.698C75.1842 403.903 75.6042 404.006 76.0615 404.006Z" fill="#363636"/>
</g>
<g filter="url(#filter11_d)">
<g filter="url(#filter12_d)">
<rect x="321.698" y="340" width="86.8605" height="20" rx="10" fill="#FAE303"/>
</g>
<path d="M344.477 348.756C344.738 348.299 345.121 347.925 345.625 347.636C346.129 347.347 346.703 347.202 347.347 347.202C348.038 347.202 348.658 347.365 349.209 347.692C349.76 348.019 350.194 348.481 350.511 349.078C350.828 349.666 350.987 350.352 350.987 351.136C350.987 351.911 350.828 352.601 350.511 353.208C350.194 353.815 349.755 354.286 349.195 354.622C348.644 354.958 348.028 355.126 347.347 355.126C346.684 355.126 346.101 354.981 345.597 354.692C345.102 354.403 344.729 354.034 344.477 353.586V355H343.203V344.64H344.477V348.756ZM349.685 351.136C349.685 350.557 349.568 350.053 349.335 349.624C349.102 349.195 348.784 348.868 348.383 348.644C347.991 348.42 347.557 348.308 347.081 348.308C346.614 348.308 346.18 348.425 345.779 348.658C345.387 348.882 345.07 349.213 344.827 349.652C344.594 350.081 344.477 350.581 344.477 351.15C344.477 351.729 344.594 352.237 344.827 352.676C345.07 353.105 345.387 353.437 345.779 353.67C346.18 353.894 346.614 354.006 347.081 354.006C347.557 354.006 347.991 353.894 348.383 353.67C348.784 353.437 349.102 353.105 349.335 352.676C349.568 352.237 349.685 351.724 349.685 351.136ZM353.322 346.082C353.079 346.082 352.874 345.998 352.706 345.83C352.538 345.662 352.454 345.457 352.454 345.214C352.454 344.971 352.538 344.766 352.706 344.598C352.874 344.43 353.079 344.346 353.322 344.346C353.555 344.346 353.751 344.43 353.91 344.598C354.078 344.766 354.162 344.971 354.162 345.214C354.162 345.457 354.078 345.662 353.91 345.83C353.751 345.998 353.555 346.082 353.322 346.082ZM353.938 347.328V355H352.664V347.328H353.938ZM359.455 355.126C358.737 355.126 358.083 354.963 357.495 354.636C356.917 354.309 356.459 353.847 356.123 353.25C355.797 352.643 355.633 351.943 355.633 351.15C355.633 350.366 355.801 349.675 356.137 349.078C356.483 348.471 356.949 348.009 357.537 347.692C358.125 347.365 358.783 347.202 359.511 347.202C360.239 347.202 360.897 347.365 361.485 347.692C362.073 348.009 362.535 348.467 362.871 349.064C363.217 349.661 363.389 350.357 363.389 351.15C363.389 351.943 363.212 352.643 362.857 353.25C362.512 353.847 362.041 354.309 361.443 354.636C360.846 354.963 360.183 355.126 359.455 355.126ZM359.455 354.006C359.913 354.006 360.342 353.899 360.743 353.684C361.145 353.469 361.467 353.147 361.709 352.718C361.961 352.289 362.087 351.766 362.087 351.15C362.087 350.534 361.966 350.011 361.723 349.582C361.481 349.153 361.163 348.835 360.771 348.63C360.379 348.415 359.955 348.308 359.497 348.308C359.031 348.308 358.601 348.415 358.209 348.63C357.827 348.835 357.519 349.153 357.285 349.582C357.052 350.011 356.935 350.534 356.935 351.15C356.935 351.775 357.047 352.303 357.271 352.732C357.505 353.161 357.813 353.483 358.195 353.698C358.578 353.903 358.998 354.006 359.455 354.006ZM364.588 351.136C364.588 350.352 364.747 349.666 365.064 349.078C365.382 348.481 365.816 348.019 366.366 347.692C366.926 347.365 367.552 347.202 368.242 347.202C368.84 347.202 369.395 347.342 369.908 347.622C370.422 347.893 370.814 348.252 371.084 348.7V344.64H372.372V355H371.084V353.558C370.832 354.015 370.459 354.393 369.964 354.692C369.47 354.981 368.891 355.126 368.228 355.126C367.547 355.126 366.926 354.958 366.366 354.622C365.816 354.286 365.382 353.815 365.064 353.208C364.747 352.601 364.588 351.911 364.588 351.136ZM371.084 351.15C371.084 350.571 370.968 350.067 370.734 349.638C370.501 349.209 370.184 348.882 369.782 348.658C369.39 348.425 368.956 348.308 368.48 348.308C368.004 348.308 367.57 348.42 367.178 348.644C366.786 348.868 366.474 349.195 366.24 349.624C366.007 350.053 365.89 350.557 365.89 351.136C365.89 351.724 366.007 352.237 366.24 352.676C366.474 353.105 366.786 353.437 367.178 353.67C367.57 353.894 368.004 354.006 368.48 354.006C368.956 354.006 369.39 353.894 369.782 353.67C370.184 353.437 370.501 353.105 370.734 352.676C370.968 352.237 371.084 351.729 371.084 351.15ZM375.799 348.574C376.023 348.135 376.341 347.795 376.751 347.552C377.171 347.309 377.68 347.188 378.277 347.188V348.504H377.941C376.513 348.504 375.799 349.279 375.799 350.828V355H374.525V347.328H375.799V348.574ZM379.272 351.136C379.272 350.352 379.431 349.666 379.748 349.078C380.065 348.481 380.499 348.019 381.05 347.692C381.61 347.365 382.231 347.202 382.912 347.202C383.584 347.202 384.167 347.347 384.662 347.636C385.157 347.925 385.525 348.289 385.768 348.728V347.328H387.056V355H385.768V353.572C385.516 354.02 385.138 354.393 384.634 354.692C384.139 354.981 383.561 355.126 382.898 355.126C382.217 355.126 381.601 354.958 381.05 354.622C380.499 354.286 380.065 353.815 379.748 353.208C379.431 352.601 379.272 351.911 379.272 351.136ZM385.768 351.15C385.768 350.571 385.651 350.067 385.418 349.638C385.185 349.209 384.867 348.882 384.466 348.658C384.074 348.425 383.64 348.308 383.164 348.308C382.688 348.308 382.254 348.42 381.862 348.644C381.47 348.868 381.157 349.195 380.924 349.624C380.691 350.053 380.574 350.557 380.574 351.136C380.574 351.724 380.691 352.237 380.924 352.676C381.157 353.105 381.47 353.437 381.862 353.67C382.254 353.894 382.688 354.006 383.164 354.006C383.64 354.006 384.074 353.894 384.466 353.67C384.867 353.437 385.185 353.105 385.418 352.676C385.651 352.237 385.768 351.729 385.768 351.15Z" fill="#363636"/>
</g>
<g filter="url(#filter13_d)">
<g filter="url(#filter14_d)">
<rect x="23.4768" y="290" width="86.8605" height="20" rx="10" fill="#FAE303"/>
</g>
<path d="M56.1409 298.742C56.3929 298.303 56.7662 297.939 57.2609 297.65C57.7649 297.351 58.3482 297.202 59.0109 297.202C59.6922 297.202 60.3082 297.365 60.8589 297.692C61.4189 298.019 61.8575 298.481 62.1749 299.078C62.4922 299.666 62.6509 300.352 62.6509 301.136C62.6509 301.911 62.4922 302.601 62.1749 303.208C61.8575 303.815 61.4189 304.286 60.8589 304.622C60.3082 304.958 59.6922 305.126 59.0109 305.126C58.3575 305.126 57.7789 304.981 57.2749 304.692C56.7802 304.393 56.4022 304.025 56.1409 303.586V308.64H54.8669V297.328H56.1409V298.742ZM61.3489 301.136C61.3489 300.557 61.2322 300.053 60.9989 299.624C60.7655 299.195 60.4482 298.868 60.0469 298.644C59.6549 298.42 59.2209 298.308 58.7449 298.308C58.2782 298.308 57.8442 298.425 57.4429 298.658C57.0509 298.882 56.7335 299.213 56.4909 299.652C56.2575 300.081 56.1409 300.581 56.1409 301.15C56.1409 301.729 56.2575 302.237 56.4909 302.676C56.7335 303.105 57.0509 303.437 57.4429 303.67C57.8442 303.894 58.2782 304.006 58.7449 304.006C59.2209 304.006 59.6549 303.894 60.0469 303.67C60.4482 303.437 60.7655 303.105 60.9989 302.676C61.2322 302.237 61.3489 301.724 61.3489 301.136ZM63.8518 301.136C63.8518 300.352 64.0105 299.666 64.3278 299.078C64.6451 298.481 65.0791 298.019 65.6298 297.692C66.1898 297.365 66.8105 297.202 67.4918 297.202C68.1638 297.202 68.7471 297.347 69.2418 297.636C69.7365 297.925 70.1051 298.289 70.3478 298.728V297.328H71.6358V305H70.3478V303.572C70.0958 304.02 69.7178 304.393 69.2138 304.692C68.7191 304.981 68.1405 305.126 67.4778 305.126C66.7965 305.126 66.1805 304.958 65.6298 304.622C65.0791 304.286 64.6451 303.815 64.3278 303.208C64.0105 302.601 63.8518 301.911 63.8518 301.136ZM70.3478 301.15C70.3478 300.571 70.2311 300.067 69.9978 299.638C69.7645 299.209 69.4471 298.882 69.0458 298.658C68.6538 298.425 68.2198 298.308 67.7438 298.308C67.2678 298.308 66.8338 298.42 66.4418 298.644C66.0498 298.868 65.7371 299.195 65.5038 299.624C65.2705 300.053 65.1538 300.557 65.1538 301.136C65.1538 301.724 65.2705 302.237 65.5038 302.676C65.7371 303.105 66.0498 303.437 66.4418 303.67C66.8338 303.894 67.2678 304.006 67.7438 304.006C68.2198 304.006 68.6538 303.894 69.0458 303.67C69.4471 303.437 69.7645 303.105 69.9978 302.676C70.2311 302.237 70.3478 301.729 70.3478 301.15ZM76.5048 305.126C75.9168 305.126 75.3894 305.028 74.9228 304.832C74.4561 304.627 74.0874 304.347 73.8168 303.992C73.5461 303.628 73.3968 303.213 73.3688 302.746H74.6848C74.7221 303.129 74.8994 303.441 75.2168 303.684C75.5434 303.927 75.9681 304.048 76.4908 304.048C76.9761 304.048 77.3588 303.941 77.6388 303.726C77.9188 303.511 78.0588 303.241 78.0588 302.914C78.0588 302.578 77.9094 302.331 77.6108 302.172C77.3121 302.004 76.8501 301.841 76.2248 301.682C75.6554 301.533 75.1888 301.383 74.8248 301.234C74.4701 301.075 74.1621 300.847 73.9008 300.548C73.6488 300.24 73.5228 299.839 73.5228 299.344C73.5228 298.952 73.6394 298.593 73.8728 298.266C74.1061 297.939 74.4374 297.683 74.8668 297.496C75.2961 297.3 75.7861 297.202 76.3368 297.202C77.1861 297.202 77.8721 297.417 78.3948 297.846C78.9174 298.275 79.1974 298.863 79.2348 299.61H77.9608C77.9328 299.209 77.7694 298.887 77.4708 298.644C77.1814 298.401 76.7894 298.28 76.2948 298.28C75.8374 298.28 75.4734 298.378 75.2028 298.574C74.9321 298.77 74.7968 299.027 74.7968 299.344C74.7968 299.596 74.8761 299.806 75.0348 299.974C75.2028 300.133 75.4081 300.263 75.6508 300.366C75.9028 300.459 76.2481 300.567 76.6868 300.688C77.2374 300.837 77.6854 300.987 78.0308 301.136C78.3761 301.276 78.6701 301.491 78.9128 301.78C79.1648 302.069 79.2954 302.447 79.3048 302.914C79.3048 303.334 79.1881 303.712 78.9548 304.048C78.7214 304.384 78.3901 304.65 77.9608 304.846C77.5408 305.033 77.0554 305.126 76.5048 305.126Z" fill="#363636"/>
</g>
<g filter="url(#filter15_d)">
<g filter="url(#filter16_d)">
<rect x="321.698" y="240" width="86.8605" height="20" rx="10" fill="#FAE303"/>
</g>
<path d="M327.264 248.742C327.516 248.303 327.89 247.939 328.384 247.65C328.888 247.351 329.472 247.202 330.134 247.202C330.816 247.202 331.432 247.365 331.982 247.692C332.542 248.019 332.981 248.481 333.298 249.078C333.616 249.666 333.774 250.352 333.774 251.136C333.774 251.911 333.616 252.601 333.298 253.208C332.981 253.815 332.542 254.286 331.982 254.622C331.432 254.958 330.816 255.126 330.134 255.126C329.481 255.126 328.902 254.981 328.398 254.692C327.904 254.393 327.526 254.025 327.264 253.586V258.64H325.99V247.328H327.264V248.742ZM332.472 251.136C332.472 250.557 332.356 250.053 332.122 249.624C331.889 249.195 331.572 248.868 331.17 248.644C330.778 248.42 330.344 248.308 329.868 248.308C329.402 248.308 328.968 248.425 328.566 248.658C328.174 248.882 327.857 249.213 327.614 249.652C327.381 250.081 327.264 250.581 327.264 251.15C327.264 251.729 327.381 252.237 327.614 252.676C327.857 253.105 328.174 253.437 328.566 253.67C328.968 253.894 329.402 254.006 329.868 254.006C330.344 254.006 330.778 253.894 331.17 253.67C331.572 253.437 331.889 253.105 332.122 252.676C332.356 252.237 332.472 251.724 332.472 251.136ZM336.725 248.574C336.949 248.135 337.266 247.795 337.677 247.552C338.097 247.309 338.606 247.188 339.203 247.188V248.504H338.867C337.439 248.504 336.725 249.279 336.725 250.828V255H335.451V247.328H336.725V248.574ZM341.626 253.95H345.392V255H340.17V253.95L343.894 248.364H340.198V247.328H345.364V248.364L341.626 253.95ZM354.045 250.87C354.045 251.113 354.031 251.369 354.003 251.64H347.871C347.918 252.396 348.174 252.989 348.641 253.418C349.117 253.838 349.691 254.048 350.363 254.048C350.914 254.048 351.371 253.922 351.735 253.67C352.108 253.409 352.37 253.063 352.519 252.634H353.891C353.686 253.371 353.275 253.973 352.659 254.44C352.043 254.897 351.278 255.126 350.363 255.126C349.635 255.126 348.982 254.963 348.403 254.636C347.834 254.309 347.386 253.847 347.059 253.25C346.732 252.643 346.569 251.943 346.569 251.15C346.569 250.357 346.728 249.661 347.045 249.064C347.362 248.467 347.806 248.009 348.375 247.692C348.954 247.365 349.616 247.202 350.363 247.202C351.091 247.202 351.735 247.361 352.295 247.678C352.855 247.995 353.284 248.434 353.583 248.994C353.891 249.545 354.045 250.17 354.045 250.87ZM352.729 250.604C352.729 250.119 352.622 249.703 352.407 249.358C352.192 249.003 351.898 248.737 351.525 248.56C351.161 248.373 350.755 248.28 350.307 248.28C349.663 248.28 349.112 248.485 348.655 248.896C348.207 249.307 347.95 249.876 347.885 250.604H352.729ZM355.25 251.136C355.25 250.352 355.409 249.666 355.726 249.078C356.044 248.481 356.478 248.019 357.028 247.692C357.588 247.365 358.214 247.202 358.904 247.202C359.502 247.202 360.057 247.342 360.57 247.622C361.084 247.893 361.476 248.252 361.746 248.7V244.64H363.034V255H361.746V253.558C361.494 254.015 361.121 254.393 360.626 254.692C360.132 254.981 359.553 255.126 358.89 255.126C358.209 255.126 357.588 254.958 357.028 254.622C356.478 254.286 356.044 253.815 355.726 253.208C355.409 252.601 355.25 251.911 355.25 251.136ZM361.746 251.15C361.746 250.571 361.63 250.067 361.396 249.638C361.163 249.209 360.846 248.882 360.444 248.658C360.052 248.425 359.618 248.308 359.142 248.308C358.666 248.308 358.232 248.42 357.84 248.644C357.448 248.868 357.136 249.195 356.902 249.624C356.669 250.053 356.552 250.557 356.552 251.136C356.552 251.724 356.669 252.237 356.902 252.676C357.136 253.105 357.448 253.437 357.84 253.67C358.232 253.894 358.666 254.006 359.142 254.006C359.618 254.006 360.052 253.894 360.444 253.67C360.846 253.437 361.163 253.105 361.396 252.676C361.63 252.237 361.746 251.729 361.746 251.15ZM366.461 248.574C366.685 248.135 367.003 247.795 367.413 247.552C367.833 247.309 368.342 247.188 368.939 247.188V248.504H368.603C367.175 248.504 366.461 249.279 366.461 250.828V255H365.187V247.328H366.461V248.574ZM369.934 251.136C369.934 250.352 370.093 249.666 370.41 249.078C370.727 248.481 371.161 248.019 371.712 247.692C372.272 247.365 372.893 247.202 373.574 247.202C374.246 247.202 374.829 247.347 375.324 247.636C375.819 247.925 376.187 248.289 376.43 248.728V247.328H377.718V255H376.43V253.572C376.178 254.02 375.8 254.393 375.296 254.692C374.801 254.981 374.223 255.126 373.56 255.126C372.879 255.126 372.263 254.958 371.712 254.622C371.161 254.286 370.727 253.815 370.41 253.208C370.093 252.601 369.934 251.911 369.934 251.136ZM376.43 251.15C376.43 250.571 376.313 250.067 376.08 249.638C375.847 249.209 375.529 248.882 375.128 248.658C374.736 248.425 374.302 248.308 373.826 248.308C373.35 248.308 372.916 248.42 372.524 248.644C372.132 248.868 371.819 249.195 371.586 249.624C371.353 250.053 371.236 250.557 371.236 251.136C371.236 251.724 371.353 252.237 371.586 252.676C371.819 253.105 372.132 253.437 372.524 253.67C372.916 253.894 373.35 254.006 373.826 254.006C374.302 254.006 374.736 253.894 375.128 253.67C375.529 253.437 375.847 253.105 376.08 252.676C376.313 252.237 376.43 251.729 376.43 251.15ZM389.097 247.188C389.694 247.188 390.226 247.314 390.693 247.566C391.16 247.809 391.528 248.177 391.799 248.672C392.07 249.167 392.205 249.769 392.205 250.478V255H390.945V250.66C390.945 249.895 390.754 249.311 390.371 248.91C389.998 248.499 389.489 248.294 388.845 248.294C388.182 248.294 387.655 248.509 387.263 248.938C386.871 249.358 386.675 249.969 386.675 250.772V255H385.415V250.66C385.415 249.895 385.224 249.311 384.841 248.91C384.468 248.499 383.959 248.294 383.315 248.294C382.652 248.294 382.125 248.509 381.733 248.938C381.341 249.358 381.145 249.969 381.145 250.772V255H379.871V247.328H381.145V248.434C381.397 248.033 381.733 247.725 382.153 247.51C382.582 247.295 383.054 247.188 383.567 247.188C384.211 247.188 384.78 247.333 385.275 247.622C385.77 247.911 386.138 248.336 386.381 248.896C386.596 248.355 386.95 247.935 387.445 247.636C387.94 247.337 388.49 247.188 389.097 247.188ZM394.953 246.082C394.71 246.082 394.505 245.998 394.337 245.83C394.169 245.662 394.085 245.457 394.085 245.214C394.085 244.971 394.169 244.766 394.337 244.598C394.505 244.43 394.71 244.346 394.953 244.346C395.186 244.346 395.382 244.43 395.541 244.598C395.709 244.766 395.793 244.971 395.793 245.214C395.793 245.457 395.709 245.662 395.541 245.83C395.382 245.998 395.186 246.082 394.953 246.082ZM395.569 247.328V255H394.295V247.328H395.569ZM404.74 250.87C404.74 251.113 404.726 251.369 404.698 251.64H398.566C398.613 252.396 398.87 252.989 399.336 253.418C399.812 253.838 400.386 254.048 401.058 254.048C401.609 254.048 402.066 253.922 402.43 253.67C402.804 253.409 403.065 253.063 403.214 252.634H404.586C404.428 253.203 404.138 253.698 403.718 254.118C403.308 254.529 402.79 254.818 402.164 254.986L401.772 255.182C401.212 255.453 400.932 255.779 400.932 256.162C400.932 256.377 401.007 256.54 401.156 256.652C401.306 256.773 401.506 256.834 401.758 256.834C402.02 256.834 402.323 256.773 402.668 256.652V257.492C402.295 257.623 401.936 257.688 401.59 257.688C401.114 257.688 400.708 257.571 400.372 257.338C400.046 257.114 399.882 256.764 399.882 256.288C399.882 255.831 400.083 255.429 400.484 255.084C399.85 255 399.29 254.79 398.804 254.454C398.319 254.109 397.941 253.656 397.67 253.096C397.4 252.527 397.264 251.878 397.264 251.15C397.264 250.357 397.423 249.661 397.74 249.064C398.058 248.467 398.501 248.009 399.07 247.692C399.649 247.365 400.312 247.202 401.058 247.202C401.786 247.202 402.43 247.361 402.99 247.678C403.55 247.995 403.98 248.434 404.278 248.994C404.586 249.545 404.74 250.17 404.74 250.87ZM403.424 250.604C403.424 250.119 403.317 249.703 403.102 249.358C402.888 249.003 402.594 248.737 402.22 248.56C401.856 248.373 401.45 248.28 401.002 248.28C400.358 248.28 399.808 248.485 399.35 248.896C398.902 249.307 398.646 249.876 398.58 250.604H403.424Z" fill="#363636"/>
</g>
<g filter="url(#filter17_d)">
<g filter="url(#filter18_d)">
<rect x="23.4768" y="190" width="86.8605" height="20" rx="10" fill="#FAE303"/>
</g>
<path d="M45.6748 198.378V202.9C45.6748 203.273 45.7541 203.539 45.9128 203.698C46.0714 203.847 46.3468 203.922 46.7388 203.922H47.6768V205H46.5288C45.8194 205 45.2874 204.837 44.9328 204.51C44.5781 204.183 44.4008 203.647 44.4008 202.9V198.378H43.4068V197.328H44.4008V195.396H45.6748V197.328H47.6768V198.378H45.6748ZM50.4944 198.574C50.7184 198.135 51.0357 197.795 51.4464 197.552C51.8664 197.309 52.3751 197.188 52.9724 197.188V198.504H52.6364C51.2084 198.504 50.4944 199.279 50.4944 200.828V205H49.2204V197.328H50.4944V198.574ZM55.101 196.082C54.8584 196.082 54.653 195.998 54.485 195.83C54.317 195.662 54.233 195.457 54.233 195.214C54.233 194.971 54.317 194.766 54.485 194.598C54.653 194.43 54.8584 194.346 55.101 194.346C55.3344 194.346 55.5304 194.43 55.689 194.598C55.857 194.766 55.941 194.971 55.941 195.214C55.941 195.457 55.857 195.662 55.689 195.83C55.5304 195.998 55.3344 196.082 55.101 196.082ZM55.717 197.328V205H54.443V197.328H55.717ZM57.4124 201.15C57.4124 200.357 57.571 199.666 57.8884 199.078C58.2057 198.481 58.6444 198.019 59.2044 197.692C59.7737 197.365 60.4224 197.202 61.1504 197.202C62.093 197.202 62.8677 197.431 63.4744 197.888C64.0904 198.345 64.4964 198.98 64.6924 199.792H63.3204C63.1897 199.325 62.933 198.957 62.5504 198.686C62.177 198.415 61.7104 198.28 61.1504 198.28C60.4224 198.28 59.8344 198.532 59.3864 199.036C58.9384 199.531 58.7144 200.235 58.7144 201.15C58.7144 202.074 58.9384 202.788 59.3864 203.292C59.8344 203.796 60.4224 204.048 61.1504 204.048C61.7104 204.048 62.177 203.917 62.5504 203.656C62.9237 203.395 63.1804 203.021 63.3204 202.536H64.6924C64.487 203.32 64.0764 203.95 63.4604 204.426C62.8444 204.893 62.0744 205.126 61.1504 205.126C60.4224 205.126 59.7737 204.963 59.2044 204.636C58.6444 204.309 58.2057 203.847 57.8884 203.25C57.571 202.653 57.4124 201.953 57.4124 201.15ZM73.3923 200.87C73.3923 201.113 73.3783 201.369 73.3503 201.64H67.2183C67.2649 202.396 67.5216 202.989 67.9883 203.418C68.4643 203.838 69.0383 204.048 69.7103 204.048C70.2609 204.048 70.7183 203.922 71.0823 203.67C71.4556 203.409 71.7169 203.063 71.8663 202.634H73.2383C73.0329 203.371 72.6223 203.973 72.0063 204.44C71.3903 204.897 70.6249 205.126 69.7103 205.126C68.9823 205.126 68.3289 204.963 67.7503 204.636C67.1809 204.309 66.7329 203.847 66.4063 203.25C66.0796 202.643 65.9163 201.943 65.9163 201.15C65.9163 200.357 66.0749 199.661 66.3923 199.064C66.7096 198.467 67.1529 198.009 67.7223 197.692C68.3009 197.365 68.9636 197.202 69.7103 197.202C70.4383 197.202 71.0823 197.361 71.6423 197.678C72.2023 197.995 72.6316 198.434 72.9303 198.994C73.2383 199.545 73.3923 200.17 73.3923 200.87ZM72.0763 200.604C72.0763 200.119 71.9689 199.703 71.7543 199.358C71.5396 199.003 71.2456 198.737 70.8723 198.56C70.5083 198.373 70.1023 198.28 69.6543 198.28C69.0103 198.28 68.4596 198.485 68.0023 198.896C67.5543 199.307 67.2976 199.876 67.2323 200.604H72.0763ZM76.3479 198.742C76.5999 198.303 76.9732 197.939 77.4679 197.65C77.9719 197.351 78.5552 197.202 79.2179 197.202C79.8992 197.202 80.5152 197.365 81.0659 197.692C81.6259 198.019 82.0646 198.481 82.3819 199.078C82.6992 199.666 82.8579 200.352 82.8579 201.136C82.8579 201.911 82.6992 202.601 82.3819 203.208C82.0646 203.815 81.6259 204.286 81.0659 204.622C80.5152 204.958 79.8992 205.126 79.2179 205.126C78.5646 205.126 77.9859 204.981 77.4819 204.692C76.9872 204.393 76.6092 204.025 76.3479 203.586V208.64H75.0739V197.328H76.3479V198.742ZM81.5559 201.136C81.5559 200.557 81.4392 200.053 81.2059 199.624C80.9726 199.195 80.6552 198.868 80.2539 198.644C79.8619 198.42 79.4279 198.308 78.9519 198.308C78.4852 198.308 78.0512 198.425 77.6499 198.658C77.2579 198.882 76.9406 199.213 76.6979 199.652C76.4646 200.081 76.3479 200.581 76.3479 201.15C76.3479 201.729 76.4646 202.237 76.6979 202.676C76.9406 203.105 77.2579 203.437 77.6499 203.67C78.0512 203.894 78.4852 204.006 78.9519 204.006C79.4279 204.006 79.8619 203.894 80.2539 203.67C80.6552 203.437 80.9726 203.105 81.2059 202.676C81.4392 202.237 81.5559 201.724 81.5559 201.136ZM87.2508 205.126C86.6628 205.126 86.1355 205.028 85.6688 204.832C85.2022 204.627 84.8335 204.347 84.5628 203.992C84.2922 203.628 84.1428 203.213 84.1148 202.746H85.4308C85.4682 203.129 85.6455 203.441 85.9628 203.684C86.2895 203.927 86.7142 204.048 87.2368 204.048C87.7222 204.048 88.1048 203.941 88.3848 203.726C88.6648 203.511 88.8048 203.241 88.8048 202.914C88.8048 202.578 88.6555 202.331 88.3568 202.172C88.0582 202.004 87.5962 201.841 86.9708 201.682C86.4015 201.533 85.9348 201.383 85.5708 201.234C85.2162 201.075 84.9082 200.847 84.6468 200.548C84.3948 200.24 84.2688 199.839 84.2688 199.344C84.2688 198.952 84.3855 198.593 84.6188 198.266C84.8522 197.939 85.1835 197.683 85.6128 197.496C86.0422 197.3 86.5322 197.202 87.0828 197.202C87.9322 197.202 88.6182 197.417 89.1408 197.846C89.6635 198.275 89.9435 198.863 89.9808 199.61H88.7068C88.6788 199.209 88.5155 198.887 88.2168 198.644C87.9275 198.401 87.5355 198.28 87.0408 198.28C86.5835 198.28 86.2195 198.378 85.9488 198.574C85.6782 198.77 85.5428 199.027 85.5428 199.344C85.5428 199.596 85.6222 199.806 85.7808 199.974C85.9488 200.133 86.1542 200.263 86.3968 200.366C86.6488 200.459 86.9942 200.567 87.4328 200.688C87.9835 200.837 88.4315 200.987 88.7768 201.136C89.1222 201.276 89.4162 201.491 89.6588 201.78C89.9108 202.069 90.0415 202.447 90.0508 202.914C90.0508 203.334 89.9342 203.712 89.7008 204.048C89.4675 204.384 89.1362 204.65 88.7068 204.846C88.2868 205.033 87.8015 205.126 87.2508 205.126Z" fill="#363636"/>
</g>
</g>
<defs>
<filter id="filter0_d" x="0.174316" y="0" width="427.826" height="576" filterUnits="userSpaceOnUse" color-interpolation-filters="sRGB">
<feFlood flood-opacity="0" result="BackgroundImageFix"/>
<feColorMatrix in="SourceAlpha" type="matrix" values="0 0 0 0 0 0 0 0 0 0 0 0 0 0 0 0 0 0 127 0"/>
<feOffset dy="4"/>
<feGaussianBlur stdDeviation="2"/>
<feColorMatrix type="matrix" values="0 0 0 0 0 0 0 0 0 0 0 0 0 0 0 0 0 0 0.25 0"/>
<feBlend mode="normal" in2="BackgroundImageFix" result="effect1_dropShadow"/>
<feBlend mode="normal" in="SourceGraphic" in2="effect1_dropShadow" result="shape"/>
</filter>
<filter id="filter1_d" x="321.698" y="40" width="94.8605" height="30" filterUnits="userSpaceOnUse" color-interpolation-filters="sRGB">
<feFlood flood-opacity="0" result="BackgroundImageFix"/>
<feColorMatrix in="SourceAlpha" type="matrix" values="0 0 0 0 0 0 0 0 0 0 0 0 0 0 0 0 0 0 127 0"/>
<feOffset dx="4" dy="6"/>
<feGaussianBlur stdDeviation="2"/>
<feColorMatrix type="matrix" values="0 0 0 0 0 0 0 0 0 0 0 0 0 0 0 0 0 0 0.25 0"/>
<feBlend mode="normal" in2="BackgroundImageFix" result="effect1_dropShadow"/>
<feBlend mode="normal" in="SourceGraphic" in2="effect1_dropShadow" result="shape"/>
</filter>
<filter id="filter2_d" x="317.698" y="40" width="94.8605" height="28" filterUnits="userSpaceOnUse" color-interpolation-filters="sRGB">
<feFlood flood-opacity="0" result="BackgroundImageFix"/>
<feColorMatrix in="SourceAlpha" type="matrix" values="0 0 0 0 0 0 0 0 0 0 0 0 0 0 0 0 0 0 127 0"/>
<feOffset dy="4"/>
<feGaussianBlur stdDeviation="2"/>
<feColorMatrix type="matrix" values="0 0 0 0 0 0 0 0 0 0 0 0 0 0 0 0 0 0 0.25 0"/>
<feBlend mode="normal" in2="BackgroundImageFix" result="effect1_dropShadow"/>
<feBlend mode="normal" in="SourceGraphic" in2="effect1_dropShadow" result="shape"/>
</filter>
<filter id="filter3_d" x="23.4768" y="90" width="94.8605" height="30" filterUnits="userSpaceOnUse" color-interpolation-filters="sRGB">
<feFlood flood-opacity="0" result="BackgroundImageFix"/>
<feColorMatrix in="SourceAlpha" type="matrix" values="0 0 0 0 0 0 0 0 0 0 0 0 0 0 0 0 0 0 127 0"/>
<feOffset dx="4" dy="6"/>
<feGaussianBlur stdDeviation="2"/>
<feColorMatrix type="matrix" values="0 0 0 0 0 0 0 0 0 0 0 0 0 0 0 0 0 0 0.25 0"/>
<feBlend mode="normal" in2="BackgroundImageFix" result="effect1_dropShadow"/>
<feBlend mode="normal" in="SourceGraphic" in2="effect1_dropShadow" result="shape"/>
</filter>
<filter id="filter4_d" x="19.4768" y="90" width="94.8605" height="28" filterUnits="userSpaceOnUse" color-interpolation-filters="sRGB">
<feFlood flood-opacity="0" result="BackgroundImageFix"/>
<feColorMatrix in="SourceAlpha" type="matrix" values="0 0 0 0 0 0 0 0 0 0 0 0 0 0 0 0 0 0 127 0"/>
<feOffset dy="4"/>
<feGaussianBlur stdDeviation="2"/>
<feColorMatrix type="matrix" values="0 0 0 0 0 0 0 0 0 0 0 0 0 0 0 0 0 0 0.25 0"/>
<feBlend mode="normal" in2="BackgroundImageFix" result="effect1_dropShadow"/>
<feBlend mode="normal" in="SourceGraphic" in2="effect1_dropShadow" result="shape"/>
</filter>
<filter id="filter5_d" x="321.698" y="140" width="94.8605" height="30" filterUnits="userSpaceOnUse" color-interpolation-filters="sRGB">
<feFlood flood-opacity="0" result="BackgroundImageFix"/>
<feColorMatrix in="SourceAlpha" type="matrix" values="0 0 0 0 0 0 0 0 0 0 0 0 0 0 0 0 0 0 127 0"/>
<feOffset dx="4" dy="6"/>
<feGaussianBlur stdDeviation="2"/>
<feColorMatrix type="matrix" values="0 0 0 0 0 0 0 0 0 0 0 0 0 0 0 0 0 0 0.25 0"/>
<feBlend mode="normal" in2="BackgroundImageFix" result="effect1_dropShadow"/>
<feBlend mode="normal" in="SourceGraphic" in2="effect1_dropShadow" result="shape"/>
</filter>
<filter id="filter6_d" x="317.698" y="140" width="94.8605" height="28" filterUnits="userSpaceOnUse" color-interpolation-filters="sRGB">
<feFlood flood-opacity="0" result="BackgroundImageFix"/>
<feColorMatrix in="SourceAlpha" type="matrix" values="0 0 0 0 0 0 0 0 0 0 0 0 0 0 0 0 0 0 127 0"/>
<feOffset dy="4"/>
<feGaussianBlur stdDeviation="2"/>
<feColorMatrix type="matrix" values="0 0 0 0 0 0 0 0 0 0 0 0 0 0 0 0 0 0 0.25 0"/>
<feBlend mode="normal" in2="BackgroundImageFix" result="effect1_dropShadow"/>
<feBlend mode="normal" in="SourceGraphic" in2="effect1_dropShadow" result="shape"/>
</filter>
<filter id="filter7_d" x="321.698" y="440" width="94.8605" height="30" filterUnits="userSpaceOnUse" color-interpolation-filters="sRGB">
<feFlood flood-opacity="0" result="BackgroundImageFix"/>
<feColorMatrix in="SourceAlpha" type="matrix" values="0 0 0 0 0 0 0 0 0 0 0 0 0 0 0 0 0 0 127 0"/>
<feOffset dx="4" dy="6"/>
<feGaussianBlur stdDeviation="2"/>
<feColorMatrix type="matrix" values="0 0 0 0 0 0 0 0 0 0 0 0 0 0 0 0 0 0 0.25 0"/>
<feBlend mode="normal" in2="BackgroundImageFix" result="effect1_dropShadow"/>
<feBlend mode="normal" in="SourceGraphic" in2="effect1_dropShadow" result="shape"/>
</filter>
<filter id="filter8_d" x="317.698" y="440" width="94.8605" height="28" filterUnits="userSpaceOnUse" color-interpolation-filters="sRGB">
<feFlood flood-opacity="0" result="BackgroundImageFix"/>
<feColorMatrix in="SourceAlpha" type="matrix" values="0 0 0 0 0 0 0 0 0 0 0 0 0 0 0 0 0 0 127 0"/>
<feOffset dy="4"/>
<feGaussianBlur stdDeviation="2"/>
<feColorMatrix type="matrix" values="0 0 0 0 0 0 0 0 0 0 0 0 0 0 0 0 0 0 0.25 0"/>
<feBlend mode="normal" in2="BackgroundImageFix" result="effect1_dropShadow"/>
<feBlend mode="normal" in="SourceGraphic" in2="effect1_dropShadow" result="shape"/>
</filter>
<filter id="filter9_d" x="23.4768" y="390" width="94.8605" height="30" filterUnits="userSpaceOnUse" color-interpolation-filters="sRGB">
<feFlood flood-opacity="0" result="BackgroundImageFix"/>
<feColorMatrix in="SourceAlpha" type="matrix" values="0 0 0 0 0 0 0 0 0 0 0 0 0 0 0 0 0 0 127 0"/>
<feOffset dx="4" dy="6"/>
<feGaussianBlur stdDeviation="2"/>
<feColorMatrix type="matrix" values="0 0 0 0 0 0 0 0 0 0 0 0 0 0 0 0 0 0 0.25 0"/>
<feBlend mode="normal" in2="BackgroundImageFix" result="effect1_dropShadow"/>
<feBlend mode="normal" in="SourceGraphic" in2="effect1_dropShadow" result="shape"/>
</filter>
<filter id="filter10_d" x="19.4768" y="390" width="94.8605" height="28" filterUnits="userSpaceOnUse" color-interpolation-filters="sRGB">
<feFlood flood-opacity="0" result="BackgroundImageFix"/>
<feColorMatrix in="SourceAlpha" type="matrix" values="0 0 0 0 0 0 0 0 0 0 0 0 0 0 0 0 0 0 127 0"/>
<feOffset dy="4"/>
<feGaussianBlur stdDeviation="2"/>
<feColorMatrix type="matrix" values="0 0 0 0 0 0 0 0 0 0 0 0 0 0 0 0 0 0 0.25 0"/>
<feBlend mode="normal" in2="BackgroundImageFix" result="effect1_dropShadow"/>
<feBlend mode="normal" in="SourceGraphic" in2="effect1_dropShadow" result="shape"/>
</filter>
<filter id="filter11_d" x="321.698" y="340" width="94.8605" height="30" filterUnits="userSpaceOnUse" color-interpolation-filters="sRGB">
<feFlood flood-opacity="0" result="BackgroundImageFix"/>
<feColorMatrix in="SourceAlpha" type="matrix" values="0 0 0 0 0 0 0 0 0 0 0 0 0 0 0 0 0 0 127 0"/>
<feOffset dx="4" dy="6"/>
<feGaussianBlur stdDeviation="2"/>
<feColorMatrix type="matrix" values="0 0 0 0 0 0 0 0 0 0 0 0 0 0 0 0 0 0 0.25 0"/>
<feBlend mode="normal" in2="BackgroundImageFix" result="effect1_dropShadow"/>
<feBlend mode="normal" in="SourceGraphic" in2="effect1_dropShadow" result="shape"/>
</filter>
<filter id="filter12_d" x="317.698" y="340" width="94.8605" height="28" filterUnits="userSpaceOnUse" color-interpolation-filters="sRGB">
<feFlood flood-opacity="0" result="BackgroundImageFix"/>
<feColorMatrix in="SourceAlpha" type="matrix" values="0 0 0 0 0 0 0 0 0 0 0 0 0 0 0 0 0 0 127 0"/>
<feOffset dy="4"/>
<feGaussianBlur stdDeviation="2"/>
<feColorMatrix type="matrix" values="0 0 0 0 0 0 0 0 0 0 0 0 0 0 0 0 0 0 0.25 0"/>
<feBlend mode="normal" in2="BackgroundImageFix" result="effect1_dropShadow"/>
<feBlend mode="normal" in="SourceGraphic" in2="effect1_dropShadow" result="shape"/>
</filter>
<filter id="filter13_d" x="23.4768" y="290" width="94.8605" height="30" filterUnits="userSpaceOnUse" color-interpolation-filters="sRGB">
<feFlood flood-opacity="0" result="BackgroundImageFix"/>
<feColorMatrix in="SourceAlpha" type="matrix" values="0 0 0 0 0 0 0 0 0 0 0 0 0 0 0 0 0 0 127 0"/>
<feOffset dx="4" dy="6"/>
<feGaussianBlur stdDeviation="2"/>
<feColorMatrix type="matrix" values="0 0 0 0 0 0 0 0 0 0 0 0 0 0 0 0 0 0 0.25 0"/>
<feBlend mode="normal" in2="BackgroundImageFix" result="effect1_dropShadow"/>
<feBlend mode="normal" in="SourceGraphic" in2="effect1_dropShadow" result="shape"/>
</filter>
<filter id="filter14_d" x="19.4768" y="290" width="94.8605" height="28" filterUnits="userSpaceOnUse" color-interpolation-filters="sRGB">
<feFlood flood-opacity="0" result="BackgroundImageFix"/>
<feColorMatrix in="SourceAlpha" type="matrix" values="0 0 0 0 0 0 0 0 0 0 0 0 0 0 0 0 0 0 127 0"/>
<feOffset dy="4"/>
<feGaussianBlur stdDeviation="2"/>
<feColorMatrix type="matrix" values="0 0 0 0 0 0 0 0 0 0 0 0 0 0 0 0 0 0 0.25 0"/>
<feBlend mode="normal" in2="BackgroundImageFix" result="effect1_dropShadow"/>
<feBlend mode="normal" in="SourceGraphic" in2="effect1_dropShadow" result="shape"/>
</filter>
<filter id="filter15_d" x="321.698" y="240" width="94.8605" height="30" filterUnits="userSpaceOnUse" color-interpolation-filters="sRGB">
<feFlood flood-opacity="0" result="BackgroundImageFix"/>
<feColorMatrix in="SourceAlpha" type="matrix" values="0 0 0 0 0 0 0 0 0 0 0 0 0 0 0 0 0 0 127 0"/>
<feOffset dx="4" dy="6"/>
<feGaussianBlur stdDeviation="2"/>
<feColorMatrix type="matrix" values="0 0 0 0 0 0 0 0 0 0 0 0 0 0 0 0 0 0 0.25 0"/>
<feBlend mode="normal" in2="BackgroundImageFix" result="effect1_dropShadow"/>
<feBlend mode="normal" in="SourceGraphic" in2="effect1_dropShadow" result="shape"/>
</filter>
<filter id="filter16_d" x="317.698" y="240" width="94.8605" height="28" filterUnits="userSpaceOnUse" color-interpolation-filters="sRGB">
<feFlood flood-opacity="0" result="BackgroundImageFix"/>
<feColorMatrix in="SourceAlpha" type="matrix" values="0 0 0 0 0 0 0 0 0 0 0 0 0 0 0 0 0 0 127 0"/>
<feOffset dy="4"/>
<feGaussianBlur stdDeviation="2"/>
<feColorMatrix type="matrix" values="0 0 0 0 0 0 0 0 0 0 0 0 0 0 0 0 0 0 0.25 0"/>
<feBlend mode="normal" in2="BackgroundImageFix" result="effect1_dropShadow"/>
<feBlend mode="normal" in="SourceGraphic" in2="effect1_dropShadow" result="shape"/>
</filter>
<filter id="filter17_d" x="23.4768" y="190" width="94.8605" height="30" filterUnits="userSpaceOnUse" color-interpolation-filters="sRGB">
<feFlood flood-opacity="0" result="BackgroundImageFix"/>
<feColorMatrix in="SourceAlpha" type="matrix" values="0 0 0 0 0 0 0 0 0 0 0 0 0 0 0 0 0 0 127 0"/>
<feOffset dx="4" dy="6"/>
<feGaussianBlur stdDeviation="2"/>
<feColorMatrix type="matrix" values="0 0 0 0 0 0 0 0 0 0 0 0 0 0 0 0 0 0 0.25 0"/>
<feBlend mode="normal" in2="BackgroundImageFix" result="effect1_dropShadow"/>
<feBlend mode="normal" in="SourceGraphic" in2="effect1_dropShadow" result="shape"/>
</filter>
<filter id="filter18_d" x="19.4768" y="190" width="94.8605" height="28" filterUnits="userSpaceOnUse" color-interpolation-filters="sRGB">
<feFlood flood-opacity="0" result="BackgroundImageFix"/>
<feColorMatrix in="SourceAlpha" type="matrix" values="0 0 0 0 0 0 0 0 0 0 0 0 0 0 0 0 0 0 127 0"/>
<feOffset dy="4"/>
<feGaussianBlur stdDeviation="2"/>
<feColorMatrix type="matrix" values="0 0 0 0 0 0 0 0 0 0 0 0 0 0 0 0 0 0 0.25 0"/>
<feBlend mode="normal" in2="BackgroundImageFix" result="effect1_dropShadow"/>
<feBlend mode="normal" in="SourceGraphic" in2="effect1_dropShadow" result="shape"/>
</filter>
<clipPath id="clip0">
<rect width="211.36" height="568" fill="white" transform="translate(110.337)"/>
</clipPath>
</defs>
</svg>
