<svg width="120" height="120" viewBox="0 0 120 120" fill="none" xmlns="http://www.w3.org/2000/svg">
<rect x="0.707107" y="60" width="83.8528" height="83.8528" rx="14.5" transform="rotate(-45 0.707107 60)" fill="#343434" stroke="#FAE303"/>
<path d="M61.1074 90.2812H58.9805C58.0781 90.2812 57.4277 90.0527 57.0293 89.5957C56.6309 89.127 56.4316 88.5117 56.4316 87.75C56.4316 86.0625 57.6914 85.2188 60.2109 85.2188C62.5781 85.2188 64.3594 85.5703 65.5547 86.2734L64.5352 87.0469C63.7148 86.6719 62.2734 86.4844 60.2109 86.4844C59.2031 86.4844 58.5234 86.5957 58.1719 86.8184C57.832 87.041 57.6621 87.3516 57.6621 87.75C57.6621 88.1484 57.7559 88.459 57.9434 88.6816C58.1309 88.9043 58.4766 89.0156 58.9805 89.0156H61.1602C62.7422 89.0156 64.166 89.2852 65.4316 89.8242C66.709 90.3633 67.7578 91.1016 68.5781 92.0391C69.3984 92.9648 70.0254 94.0371 70.459 95.2559C70.8926 96.4629 71.1094 97.7578 71.1094 99.1406C71.1094 100.266 70.9512 101.332 70.6348 102.34C70.3184 103.348 69.8379 104.273 69.1934 105.117C68.5605 105.961 67.793 106.693 66.8906 107.314C66 107.924 64.9336 108.398 63.6914 108.738C62.4609 109.09 61.125 109.266 59.6836 109.266C57.4219 109.266 55.3008 108.92 53.3203 108.229C51.3516 107.549 49.7109 106.594 48.3984 105.363L49.418 104.607C50.6133 105.686 52.1074 106.523 53.9004 107.121C55.7051 107.707 57.6328 108 59.6836 108C61.2891 108 62.7363 107.771 64.0254 107.314C65.3262 106.846 66.3926 106.207 67.2246 105.398C68.0684 104.59 68.7129 103.652 69.1582 102.586C69.6152 101.52 69.8438 100.371 69.8438 99.1406C69.8438 97.5117 69.5156 96.041 68.8594 94.7285C68.2031 93.4043 67.2012 92.332 65.8535 91.5117C64.5176 90.6914 62.9355 90.2812 61.1074 90.2812ZM58.9805 91.5469H60.9844C63.3633 91.5469 65.2207 92.2734 66.5566 93.7266C67.9043 95.1797 68.5781 96.9844 68.5781 99.1406C68.5781 101.332 67.7988 103.148 66.2402 104.59C64.6816 106.02 62.4961 106.734 59.6836 106.734C57.8086 106.734 56.0566 106.477 54.4277 105.961C52.7988 105.445 51.4453 104.719 50.3672 103.781L51.3516 102.99C52.3125 103.775 53.5195 104.385 54.9727 104.818C56.4375 105.252 58.0078 105.469 59.6836 105.469C62.1562 105.469 64.043 104.877 65.3438 103.693C66.6562 102.51 67.3125 100.992 67.3125 99.1406C67.3125 97.3125 66.7617 95.8008 65.6602 94.6055C64.5703 93.4102 63.0059 92.8125 60.9668 92.8125H58.9805C57.2695 92.8125 55.9863 92.3438 55.1309 91.4062C54.2754 90.4688 53.8477 89.25 53.8477 87.75C53.8477 86.25 54.375 85.0312 55.4297 84.0938C56.4961 83.1562 58.0898 82.6875 60.2109 82.6875C61.6992 82.6875 63.082 82.8633 64.3594 83.2148C65.6367 83.5547 66.6914 84.0469 67.5234 84.6914L66.5215 85.4648C65.0566 84.457 62.9531 83.9531 60.2109 83.9531C58.4414 83.9531 57.1465 84.3047 56.3262 85.0078C55.5176 85.6992 55.1133 86.6133 55.1133 87.75C55.1133 88.8984 55.4121 89.8184 56.0098 90.5098C56.6191 91.2012 57.6094 91.5469 58.9805 91.5469ZM58.9805 94.0781H60.9141C62.625 94.0781 63.9082 94.5527 64.7637 95.502C65.6191 96.4512 66.0469 97.6641 66.0469 99.1406C66.0469 100.641 65.5137 101.859 64.4473 102.797C63.3926 103.734 61.8047 104.203 59.6836 104.203C58.1953 104.203 56.8066 104.033 55.5176 103.693C54.2402 103.342 53.1855 102.844 52.3535 102.199L53.3555 101.426C54.8203 102.434 56.9297 102.938 59.6836 102.938C61.4531 102.938 62.7422 102.592 63.5508 101.9C64.3711 101.197 64.7812 100.277 64.7812 99.1406C64.7812 98.0039 64.4766 97.0898 63.8672 96.3984C63.2578 95.6953 62.2676 95.3438 60.8965 95.3438H58.9805C56.5781 95.3438 54.6973 94.6289 53.3379 93.1992C51.9902 91.7578 51.3164 89.9414 51.3164 87.75C51.3164 85.5586 52.0957 83.748 53.6543 82.3184C55.2129 80.877 57.3984 80.1562 60.2109 80.1562C62.0859 80.1562 63.832 80.4141 65.4492 80.9297C67.0781 81.4453 68.4316 82.1719 69.5098 83.1094L68.5254 83.9004C67.5645 83.1152 66.3574 82.5059 64.9043 82.0723C63.4512 81.6387 61.8867 81.4219 60.2109 81.4219C57.7383 81.4219 55.8457 82.0137 54.5332 83.1973C53.2324 84.3809 52.582 85.8984 52.582 87.75C52.582 89.5898 53.1328 91.1074 54.2344 92.3027C55.3359 93.4863 56.918 94.0781 58.9805 94.0781ZM58.9805 96.6094H60.9141C61.8164 96.6094 62.4668 96.8438 62.8652 97.3125C63.2637 97.7812 63.4629 98.3906 63.4629 99.1406C63.4629 100.828 62.2031 101.672 59.6836 101.672C57.3047 101.672 55.5176 101.32 54.3223 100.617L55.3418 99.8438C56.1621 100.219 57.6094 100.406 59.6836 100.406C60.6914 100.406 61.3652 100.295 61.7051 100.072C62.0566 99.8496 62.2324 99.5391 62.2324 99.1406C62.2324 98.7539 62.1328 98.4492 61.9336 98.2266C61.7461 97.9922 61.3945 97.875 60.8789 97.875H58.9805C57.3633 97.875 55.8984 97.6113 54.5859 97.084C53.2852 96.5566 52.2129 95.8301 51.3691 94.9043C50.5371 93.9785 49.8984 92.9062 49.4531 91.6875C49.0078 90.4688 48.7852 89.1562 48.7852 87.75C48.7852 86.625 48.9434 85.5586 49.2598 84.5508C49.5762 83.543 50.0508 82.6172 50.6836 81.7734C51.3281 80.9297 52.0957 80.2031 52.9863 79.5938C53.8887 78.9727 54.9551 78.4922 56.1855 78.1523C57.4277 77.8008 58.7695 77.625 60.2109 77.625C62.4727 77.625 64.5879 77.9707 66.5566 78.6621C68.5254 79.3418 70.166 80.2969 71.4785 81.5273L70.459 82.2832C69.2637 81.2051 67.7695 80.373 65.9766 79.7871C64.1836 79.1895 62.2617 78.8906 60.2109 78.8906C58.6055 78.8906 57.1523 79.125 55.8516 79.5938C54.5625 80.0508 53.4961 80.6836 52.6523 81.4922C51.8203 82.3008 51.1758 83.2383 50.7188 84.3047C50.2734 85.3711 50.0508 86.5195 50.0508 87.75C50.0508 89.4023 50.3848 90.8906 51.0527 92.2148C51.7207 93.5391 52.7402 94.6055 54.1113 95.4141C55.4824 96.2109 57.1055 96.6094 58.9805 96.6094Z" fill="#FAE303"/>
<path d="M66.0117 35.3828L67.2773 32.9922V46H66.0117V35.3828ZM68.543 30.5312L69.8086 28.1406V46H68.543V30.5312ZM71.0742 25.75L72.3398 23.3418V46H71.0742V25.75ZM62.584 34.7852L61.8633 33.4668L70.582 16.8906H72.0059L62.584 34.7852ZM61.125 32.0254L60.3867 30.6895L67.6992 16.8906H69.1406L61.125 32.0254ZM52.6523 33.1328L53.918 35.5234V46H52.6523V33.1328ZM50.1211 28.3164L51.3867 30.707V46H50.1211V28.3164ZM47.5898 23.5L48.8555 25.9082V46H47.5898V23.5ZM57.8203 38.4062H56.3965L46.3242 19.2988V46H45.0586V16.8906H46.4824L57.8203 38.4062ZM60.6855 38.4062H59.2441L47.9238 16.8906H49.3652L60.6855 38.4062ZM73.6055 19.2988L63.5332 38.4062H62.0918L50.7891 16.8906H52.2129L62.8301 37.0703L73.4297 16.8906H74.8711V46H73.6055V19.2988Z" fill="#FAE303"/>
<path fill-rule="evenodd" clip-rule="evenodd" d="M34.4335 56.7916C34.7238 57.0381 35.0141 57.2844 35.3043 57.5308C36.0279 58.145 36.4429 59.0321 36.4429 59.9646C36.4429 60.8971 36.0279 61.7841 35.3043 62.3984C32.9933 64.3601 29.5423 64.3601 27.2312 62.3984C27.4598 62.721 27.6885 63.0432 27.9169 63.3659C29.5408 65.6565 32.6408 66.4621 35.2278 65.2658L33.6834 66.389C30.9454 68.3806 27.5694 69.1342 24.3482 68.65C25.6521 68.4049 26.9062 67.9305 28.0458 67.2434L28.6223 66.8957C25.9124 67.8716 22.9316 67.8716 20.2219 66.8957L18.8151 66.389C18.2806 66.4585 17.7461 66.5282 17.2116 66.5977C17.0985 66.5561 16.9859 66.5143 16.8748 66.4721C16.5881 66.3626 15.5619 65.9607 15.4087 65.6999C15.1238 65.0225 15.2495 62.1399 15.293 61.3363C15.3452 60.3722 15.4222 59.4046 15.533 58.4452C15.6134 57.75 16.155 56.5937 16.8567 55.3364C16.6397 56.1913 16.4976 57.0595 16.4332 57.9345L16.2632 60.2444L16.4892 58.8406C16.9011 56.7012 17.5997 54.6039 18.5723 52.5852L18.7391 52.2389C19.3636 51.271 19.9299 50.4331 20.2728 49.9234C21.415 48.2255 22.5861 46.547 23.7386 44.8557C24.3754 43.9212 25.012 42.9867 25.6486 42.0522C25.6606 42.0347 25.6726 42.0172 25.6846 41.9995C25.6945 41.9809 25.7046 41.9623 25.7145 41.9437C26.2928 40.8619 26.7037 39.4355 27.819 38.8745C29.1545 38.2026 30.5833 37.3666 31.8507 36.5806C31.9564 36.5152 33.1001 36.8088 33.1579 36.9168C33.3938 37.358 33.6262 38.0542 33.9027 38.4725C34.0797 38.7401 34.3393 39.2068 34.6629 39.7894C34.9863 40.372 34.816 40.9103 33.9402 40.6024C34.661 41.3354 33.6046 41.8855 32.9771 41.3585C33.6502 42.0347 32.8587 42.6557 32.2937 42.1229C32.3842 42.9229 30.9845 43.2964 30.1065 42.9541C29.8928 42.8708 29.961 42.2393 31.0341 42.18C30.5109 42.0044 30.1263 41.5721 30.1177 40.946C29.3228 42.0684 28.48 42.1672 27.6021 41.516C26.1106 44.5325 24.619 47.5491 23.1274 50.5657C23.278 54.4988 22.2045 58.385 20.0466 61.7183C19.8548 62.0143 19.6631 62.3105 19.4713 62.6065C21.1912 63.0444 23.0217 62.5686 24.2856 61.3555C24.6195 61.035 24.9533 60.7145 25.2872 60.3939C25.4751 60.0951 25.6629 59.7964 25.8505 59.4978C27.6459 56.6421 31.3159 55.53 34.4335 56.7916V56.7916ZM44.5938 54.1746C43.825 54.1544 43.056 54.1342 42.2871 54.1141C40.215 54.0598 38.2873 55.1393 37.2998 56.907C36.7596 56.6211 36.2193 56.3351 35.6792 56.0491C31.8557 54.0248 27.0676 55.2693 24.8 58.8765C25.0599 58.0347 25.3199 57.193 25.5798 56.3515C25.7876 54.3762 25.9954 52.4009 26.2031 50.4257C26.4713 47.8776 27.1591 45.3878 28.2405 43.0512C28.6006 43.1915 28.9602 43.3318 29.3203 43.4721C30.895 44.086 32.6988 43.6173 33.746 42.3219C34.3696 42.2013 35.7153 42.226 35.5856 41.3407C35.4557 40.4553 35.2369 40.6628 35.3673 40.0255C35.4977 39.3884 34.2036 37.8488 33.622 36.7604C33.4349 36.4111 33.1055 36.1541 32.7136 36.0522C32.3219 35.9505 31.9039 36.0132 31.5621 36.225C30.3255 36.9917 29.0541 37.7038 27.7513 38.359C26.4105 39.0335 25.3175 40.0936 24.6221 41.3941C23.9853 42.3287 23.3487 43.2631 22.7119 44.1977C19.6209 48.7343 14.6113 55.7057 14.3101 58.3122C14.009 60.9189 13.8102 65.1132 14.2811 66.177C14.752 67.2407 17.0388 67.6887 18.192 68.2935C24.8051 71.7609 34.2709 71.3681 40.8841 67.9007C41.2582 69.2308 41.6322 70.561 42.0064 71.8914C42.7 74.3586 44.0402 76.6099 45.8963 78.4264C43.5109 73.2055 43.3287 68.7926 43.6272 66.0261C43.835 66.4896 44.0427 66.9533 44.2506 67.4168C44.9714 69.025 45.8784 70.5485 46.9538 71.958C48.1887 73.5765 50.4118 74.1543 52.3158 73.3514C51.3122 73.2892 50.5553 72.9795 49.9287 72.3805C49.9956 72.3868 50.0642 72.3903 50.1338 72.3903C50.9129 72.3903 51.5444 71.9774 51.5444 71.4681C51.5444 70.959 50.9129 70.5461 50.1338 70.5461C49.5251 70.5461 49.0066 70.798 48.8088 71.1515C46.9807 68.9136 45.949 66.3027 45.9962 63.0632C44.0013 61.209 40.0427 60.4129 40.0114 57.5005C40.1897 55.4479 41.8802 54.4534 44.5938 54.1746" fill="#FAE303"/>
<path fill-rule="evenodd" clip-rule="evenodd" d="M84.5665 56.7871C84.2762 57.0336 83.9859 57.2799 83.6957 57.5263C82.9721 58.1405 82.5571 59.0276 82.5571 59.9601C82.5571 60.8926 82.9721 61.7796 83.6957 62.3939C86.0067 64.3556 89.4577 64.3556 91.7688 62.3939C91.5402 62.7164 91.3115 63.0387 91.0831 63.3614C89.4592 65.652 86.3592 66.4576 83.7722 65.2613L85.3166 66.3845C88.0546 68.3761 91.4306 69.1297 94.6518 68.6455C93.3479 68.4004 92.0938 67.926 90.9542 67.2389L90.3777 66.8912C93.0876 67.8671 96.0684 67.8671 98.7781 66.8912L100.185 66.3845C100.719 66.454 101.254 66.5237 101.788 66.5932C101.902 66.5515 102.014 66.5098 102.125 66.4676C102.412 66.3581 103.438 65.9562 103.591 65.6954C103.876 65.018 103.75 62.1354 103.707 61.3318C103.655 60.3677 103.578 59.4001 103.467 58.4406C103.387 57.7455 102.845 56.5892 102.143 55.3318C102.36 56.1868 102.502 57.0549 102.567 57.93L102.737 60.2399L102.511 58.8361C102.099 56.6967 101.4 54.5994 100.428 52.5807L100.261 52.2344C99.6364 51.2665 99.0701 50.4286 98.7272 49.9189C97.585 48.221 96.4139 46.5425 95.2614 44.8512C94.6246 43.9167 93.988 42.9822 93.3514 42.0477C93.3394 42.0301 93.3274 42.0127 93.3154 41.995C93.3055 41.9764 93.2954 41.9578 93.2855 41.9391C92.7072 40.8573 92.2963 39.4309 91.181 38.87C89.8455 38.1981 88.4167 37.3621 87.1493 36.5761C87.0436 36.5107 85.8999 36.8043 85.8421 36.9123C85.6062 37.3535 85.3738 38.0497 85.0973 38.468C84.9203 38.7355 84.6607 39.2022 84.3371 39.7849C84.0137 40.3675 84.184 40.9057 85.0598 40.5979C84.339 41.3309 85.3954 41.881 86.0229 41.354C85.3498 42.0301 86.1413 42.6512 86.7063 42.1184C86.6158 42.9184 88.0155 43.2919 88.8935 42.9496C89.1072 42.8662 89.039 42.2347 87.9659 42.1755C88.4891 41.9999 88.8737 41.5676 88.8823 40.9415C89.6772 42.0639 90.52 42.1627 91.3979 41.5114C92.8894 44.528 94.381 47.5446 95.8726 50.5611C95.722 54.4943 96.7955 58.3805 98.9534 61.7137C99.1452 62.0097 99.3369 62.306 99.5287 62.602C97.8088 63.0399 95.9783 62.5641 94.7144 61.351C94.3805 61.0305 94.0467 60.7099 93.7128 60.3894C93.5249 60.0906 93.3371 59.7919 93.1495 59.4933C91.3541 56.6376 87.6841 55.5255 84.5665 56.7871V56.7871ZM74.4062 54.1701C75.175 54.1499 75.944 54.1297 76.7129 54.1096C78.785 54.0553 80.7127 55.1348 81.7002 56.9025C82.2404 56.6165 82.7807 56.3305 83.3208 56.0445C87.1443 54.0203 91.9324 55.2648 94.2 58.872C93.9401 58.0301 93.6801 57.1885 93.4202 56.3469C93.2124 54.3717 93.0046 52.3964 92.7969 50.4211C92.5287 47.8731 91.8409 45.3833 90.7595 43.0467C90.3994 43.187 90.0398 43.3273 89.6797 43.4676C88.105 44.0814 86.3012 43.6128 85.254 42.3174C84.6304 42.1968 83.2847 42.2215 83.4144 41.3362C83.5443 40.4508 83.7631 40.6583 83.6327 40.021C83.5023 39.3838 84.7964 37.8442 85.378 36.7559C85.5651 36.4066 85.8945 36.1495 86.2864 36.0477C86.6781 35.946 87.0961 36.0086 87.4379 36.2205C88.6745 36.9872 89.9459 37.6993 91.2487 38.3545C92.5895 39.029 93.6825 40.0891 94.3779 41.3896C95.0147 42.3242 95.6513 43.2586 96.2881 44.1932C99.3791 48.7298 104.389 55.7012 104.69 58.3077C104.991 60.9143 105.19 65.1087 104.719 66.1725C104.248 67.2362 101.961 67.6842 100.808 68.2889C94.1949 71.7564 84.7291 71.3636 78.1159 67.8961C77.7418 69.2263 77.3678 70.5565 76.9936 71.8868C76.3 74.3541 74.9598 76.6054 73.1037 78.4219C75.4891 73.201 75.6713 68.788 75.3728 66.0216C75.165 66.4851 74.9573 66.9488 74.7494 67.4123C74.0286 69.0205 73.1216 70.5439 72.0462 71.9535C70.8113 73.5719 68.5882 74.1497 66.6842 73.3469C67.6878 73.2847 68.4447 72.975 69.0713 72.376C69.0044 72.3823 68.9358 72.3857 68.8662 72.3857C68.0871 72.3857 67.4556 71.9729 67.4556 71.4636C67.4556 70.9544 68.0871 70.5416 68.8662 70.5416C69.4749 70.5416 69.9934 70.7935 70.1912 71.147C72.0193 68.9091 73.051 66.2981 73.0038 63.0587C74.9987 61.2045 78.9573 60.4084 78.9886 57.496C78.8103 55.4434 77.1198 54.4489 74.4062 54.1701" fill="#FAE303"/>
</svg>
